<?xml version="1.0" encoding="UTF-8" standalone="no"?>
<!-- Created with Inkscape (http://www.inkscape.org/) -->

<svg
   sodipodi:docname="Arrakis_Dune_Boardgame_Heightmap_Territories.svg"
   xml:space="preserve"
   id="svg5"
   version="1.1"
   viewBox="0 0 550 575"
   height="575"
   width="550"
   inkscape:version="1.2.2 (732a01da63, 2022-12-09)"
   inkscape:export-filename="Arrakis_Dune_Boardgame_Heightmap_Territories.png"
   inkscape:export-xdpi="96"
   inkscape:export-ydpi="96"
   xmlns:inkscape="http://www.inkscape.org/namespaces/inkscape"
   xmlns:sodipodi="http://sodipodi.sourceforge.net/DTD/sodipodi-0.dtd"
   xmlns="http://www.w3.org/2000/svg"
   xmlns:svg="http://www.w3.org/2000/svg"><sodipodi:namedview
     id="namedview7"
     pagecolor="#f0f0f0"
     bordercolor="#000000"
     borderopacity="0.25"
     inkscape:showpageshadow="2"
     inkscape:pageopacity="0"
     inkscape:pagecheckerboard="0"
     inkscape:deskcolor="#0d0d0d"
     inkscape:document-units="px"
     showgrid="false"
     inkscape:zoom="2.6532576"
     inkscape:cx="229.71761"
     inkscape:cy="326.76812"
     inkscape:window-width="2560"
     inkscape:window-height="1377"
     inkscape:window-x="-8"
     inkscape:window-y="-8"
     inkscape:window-maximized="1"
     inkscape:current-layer="g3171" /><defs
     id="defs2"><inkscape:path-effect
       effect="offset"
       id="path-effect28428"
       is_visible="true"
       lpeversion="1.2"
       linejoin_type="miter"
       unit="px"
       offset="-3.5"
       miter_limit="4"
       attempt_force_join="false"
       update_on_knot_move="true" /><inkscape:path-effect
       effect="offset"
       id="path-effect28426"
       is_visible="true"
       lpeversion="1.2"
       linejoin_type="miter"
       unit="px"
       offset="-1.5"
       miter_limit="4"
       attempt_force_join="false"
       update_on_knot_move="true" /><inkscape:path-effect
       effect="offset"
       id="path-effect57162"
       is_visible="true"
       lpeversion="1.2"
       linejoin_type="miter"
       unit="px"
       offset="-3"
       miter_limit="4"
       attempt_force_join="false"
       update_on_knot_move="true" /><inkscape:path-effect
       effect="offset"
       id="path-effect43151"
       is_visible="true"
       lpeversion="1.2"
       linejoin_type="miter"
       unit="px"
       offset="-10"
       miter_limit="4"
       attempt_force_join="false"
       update_on_knot_move="true" /><inkscape:path-effect
       effect="offset"
       id="path-effect31343"
       is_visible="true"
       lpeversion="1.2"
       linejoin_type="miter"
       unit="px"
       offset="-2"
       miter_limit="4"
       attempt_force_join="false"
       update_on_knot_move="true" /><inkscape:path-effect
       effect="offset"
       id="path-effect30787"
       is_visible="true"
       lpeversion="1.2"
       linejoin_type="miter"
       unit="px"
       offset="-2"
       miter_limit="4"
       attempt_force_join="false"
       update_on_knot_move="true" /><inkscape:path-effect
       effect="offset"
       id="path-effect30507"
       is_visible="true"
       lpeversion="1.2"
       linejoin_type="miter"
       unit="px"
       offset="-2"
       miter_limit="4"
       attempt_force_join="false"
       update_on_knot_move="true" /><inkscape:path-effect
       effect="offset"
       id="path-effect29148"
       is_visible="true"
       lpeversion="1.2"
       linejoin_type="miter"
       unit="px"
       offset="-2"
       miter_limit="4"
       attempt_force_join="false"
       update_on_knot_move="true" /><inkscape:path-effect
       effect="offset"
       id="path-effect28523"
       is_visible="true"
       lpeversion="1.2"
       linejoin_type="miter"
       unit="px"
       offset="-2"
       miter_limit="4"
       attempt_force_join="false"
       update_on_knot_move="true" /><inkscape:path-effect
       effect="offset"
       id="path-effect28519"
       is_visible="true"
       lpeversion="1.2"
       linejoin_type="miter"
       unit="px"
       offset="-2"
       miter_limit="4"
       attempt_force_join="false"
       update_on_knot_move="true" /><inkscape:path-effect
       effect="offset"
       id="path-effect27780"
       is_visible="true"
       lpeversion="1.2"
       linejoin_type="miter"
       unit="px"
       offset="3"
       miter_limit="4"
       attempt_force_join="false"
       update_on_knot_move="true" /><inkscape:path-effect
       effect="offset"
       id="path-effect26055"
       is_visible="true"
       lpeversion="1.2"
       linejoin_type="miter"
       unit="px"
       offset="-7"
       miter_limit="4"
       attempt_force_join="false"
       update_on_knot_move="true" /><inkscape:path-effect
       effect="offset"
       id="path-effect26053"
       is_visible="true"
       lpeversion="1.2"
       linejoin_type="miter"
       unit="px"
       offset="10"
       miter_limit="4"
       attempt_force_join="false"
       update_on_knot_move="true" /><inkscape:path-effect
       effect="offset"
       id="path-effect26048"
       is_visible="true"
       lpeversion="1.2"
       linejoin_type="miter"
       unit="px"
       offset="-2"
       miter_limit="4"
       attempt_force_join="false"
       update_on_knot_move="true" /><inkscape:path-effect
       effect="offset"
       id="path-effect26044"
       is_visible="true"
       lpeversion="1.2"
       linejoin_type="miter"
       unit="px"
       offset="-2"
       miter_limit="4"
       attempt_force_join="false"
       update_on_knot_move="true" /><inkscape:path-effect
       effect="offset"
       id="path-effect26040"
       is_visible="true"
       lpeversion="1.2"
       linejoin_type="miter"
       unit="px"
       offset="-2"
       miter_limit="4"
       attempt_force_join="false"
       update_on_knot_move="true" /><inkscape:path-effect
       effect="offset"
       id="path-effect26036"
       is_visible="true"
       lpeversion="1.2"
       linejoin_type="miter"
       unit="px"
       offset="-2"
       miter_limit="4"
       attempt_force_join="false"
       update_on_knot_move="true" /><inkscape:path-effect
       effect="offset"
       id="path-effect26032"
       is_visible="true"
       lpeversion="1.2"
       linejoin_type="miter"
       unit="px"
       offset="-2"
       miter_limit="4"
       attempt_force_join="false"
       update_on_knot_move="true" /><inkscape:path-effect
       effect="offset"
       id="path-effect26028"
       is_visible="true"
       lpeversion="1.2"
       linejoin_type="miter"
       unit="px"
       offset="-2"
       miter_limit="4"
       attempt_force_join="false"
       update_on_knot_move="true" /><inkscape:path-effect
       effect="offset"
       id="path-effect26024"
       is_visible="true"
       lpeversion="1.2"
       linejoin_type="miter"
       unit="px"
       offset="-2"
       miter_limit="4"
       attempt_force_join="false"
       update_on_knot_move="true" /><inkscape:path-effect
       effect="offset"
       id="path-effect26020"
       is_visible="true"
       lpeversion="1.2"
       linejoin_type="miter"
       unit="px"
       offset="-2"
       miter_limit="4"
       attempt_force_join="false"
       update_on_knot_move="true" /><inkscape:path-effect
       effect="offset"
       id="path-effect26016"
       is_visible="true"
       lpeversion="1.2"
       linejoin_type="miter"
       unit="px"
       offset="-2"
       miter_limit="4"
       attempt_force_join="false"
       update_on_knot_move="true" /><inkscape:path-effect
       effect="offset"
       id="path-effect26012"
       is_visible="true"
       lpeversion="1.2"
       linejoin_type="miter"
       unit="px"
       offset="-2"
       miter_limit="4"
       attempt_force_join="false"
       update_on_knot_move="true" /><inkscape:path-effect
       effect="offset"
       id="path-effect26008"
       is_visible="true"
       lpeversion="1.2"
       linejoin_type="miter"
       unit="px"
       offset="-2"
       miter_limit="4"
       attempt_force_join="false"
       update_on_knot_move="true" /><inkscape:path-effect
       effect="offset"
       id="path-effect26004"
       is_visible="true"
       lpeversion="1.2"
       linejoin_type="miter"
       unit="px"
       offset="-2"
       miter_limit="4"
       attempt_force_join="false"
       update_on_knot_move="true" /><inkscape:path-effect
       effect="offset"
       id="path-effect25915"
       is_visible="true"
       lpeversion="1.2"
       linejoin_type="miter"
       unit="px"
       offset="-2.4"
       miter_limit="4"
       attempt_force_join="false"
       update_on_knot_move="true" /><inkscape:path-effect
       effect="offset"
       id="path-effect25470"
       is_visible="true"
       lpeversion="1.2"
       linejoin_type="miter"
       unit="px"
       offset="-2"
       miter_limit="4"
       attempt_force_join="false"
       update_on_knot_move="true" /><inkscape:path-effect
       effect="offset"
       id="path-effect25258"
       is_visible="true"
       lpeversion="1.2"
       linejoin_type="miter"
       unit="px"
       offset="0"
       miter_limit="4"
       attempt_force_join="false"
       update_on_knot_move="true" /><inkscape:path-effect
       effect="offset"
       id="path-effect25256"
       is_visible="true"
       lpeversion="1.2"
       linejoin_type="miter"
       unit="px"
       offset="-2"
       miter_limit="4"
       attempt_force_join="false"
       update_on_knot_move="true" /><inkscape:path-effect
       effect="offset"
       id="path-effect24972"
       is_visible="true"
       lpeversion="1.2"
       linejoin_type="miter"
       unit="px"
       offset="-2"
       miter_limit="4"
       attempt_force_join="false"
       update_on_knot_move="true" /><inkscape:path-effect
       effect="offset"
       id="path-effect24903"
       is_visible="true"
       lpeversion="1.2"
       linejoin_type="miter"
       unit="px"
       offset="-2"
       miter_limit="4"
       attempt_force_join="false"
       update_on_knot_move="true" /><inkscape:path-effect
       effect="offset"
       id="path-effect24021"
       is_visible="true"
       lpeversion="1.2"
       linejoin_type="miter"
       unit="px"
       offset="-2"
       miter_limit="4"
       attempt_force_join="false"
       update_on_knot_move="true" /><inkscape:path-effect
       effect="offset"
       id="path-effect24019"
       is_visible="true"
       lpeversion="1.2"
       linejoin_type="miter"
       unit="px"
       offset="-2"
       miter_limit="4"
       attempt_force_join="false"
       update_on_knot_move="true" /><inkscape:path-effect
       effect="offset"
       id="path-effect23116"
       is_visible="true"
       lpeversion="1.2"
       linejoin_type="miter"
       unit="px"
       offset="-2"
       miter_limit="4"
       attempt_force_join="false"
       update_on_knot_move="true" /><inkscape:path-effect
       effect="offset"
       id="path-effect22991"
       is_visible="true"
       lpeversion="1.2"
       linejoin_type="miter"
       unit="px"
       offset="-2"
       miter_limit="4"
       attempt_force_join="false"
       update_on_knot_move="true" /><inkscape:path-effect
       effect="offset"
       id="path-effect22989"
       is_visible="true"
       lpeversion="1.2"
       linejoin_type="miter"
       unit="mm"
       offset="0"
       miter_limit="4"
       attempt_force_join="false"
       update_on_knot_move="true" /><inkscape:path-effect
       effect="offset"
       id="path-effect22984"
       is_visible="true"
       lpeversion="1.2"
       linejoin_type="miter"
       unit="px"
       offset="-5"
       miter_limit="4"
       attempt_force_join="false"
       update_on_knot_move="true" /><inkscape:path-effect
       effect="offset"
       id="path-effect22982"
       is_visible="true"
       lpeversion="1.2"
       linejoin_type="miter"
       unit="px"
       offset="-5"
       miter_limit="4"
       attempt_force_join="false"
       update_on_knot_move="true" /><inkscape:path-effect
       effect="offset"
       id="path-effect22980"
       is_visible="true"
       lpeversion="1.2"
       linejoin_type="miter"
       unit="px"
       offset="-5"
       miter_limit="4"
       attempt_force_join="false"
       update_on_knot_move="true" /><inkscape:path-effect
       effect="offset"
       id="path-effect22978"
       is_visible="true"
       lpeversion="1.2"
       linejoin_type="miter"
       unit="px"
       offset="-5"
       miter_limit="4"
       attempt_force_join="false"
       update_on_knot_move="true" /><inkscape:path-effect
       effect="offset"
       id="path-effect22963"
       is_visible="true"
       lpeversion="1.2"
       linejoin_type="miter"
       unit="px"
       offset="-2"
       miter_limit="4"
       attempt_force_join="false"
       update_on_knot_move="true" /><inkscape:path-effect
       effect="offset"
       id="path-effect22957"
       is_visible="true"
       lpeversion="1.2"
       linejoin_type="miter"
       unit="px"
       offset="-5"
       miter_limit="4"
       attempt_force_join="false"
       update_on_knot_move="true" /><inkscape:path-effect
       effect="offset"
       id="path-effect22955"
       is_visible="true"
       lpeversion="1.2"
       linejoin_type="miter"
       unit="px"
       offset="-5"
       miter_limit="4"
       attempt_force_join="false"
       update_on_knot_move="true" /></defs><g
     id="g3085"
     inkscape:groupmode="layer"
     inkscape:label="Art"><rect
       style="fill:#000000;fill-opacity:1;stroke:none;stroke-width:0.999994;stroke-linecap:square"
       id="rect8323"
       width="550"
       height="575"
       x="0"
       y="0" /><path
       id="path57158"
       style="display:inline;fill:#0f0f0f;fill-opacity:1;stroke:none;stroke-linecap:square"
       inkscape:label="Board"
       d="m 275.30469,51.794922 h 0.11133 l 0.0664,0.002 c 4.27718,0.0649 8.55698,0.263463 12.8457,0.548828 l 3.45899,0.228516 -0.008,-0.103516 8.3164,0.839844 c 0.89168,0.09007 1.8242,0.260336 2.85938,0.376953 l 0.006,0.002 1.60156,0.173828 0.004,0.04297 2.35547,0.302734 c 34.96737,4.505089 68.55551,16.320029 98.63671,34.6875 l 2.44532,1.494141 0.043,-0.06445 2.16796,1.433594 0.0176,0.01172 c 0.87166,0.558784 1.69757,1.013013 2.44141,1.501954 l 5.92578,3.894531 -0.16992,0.251953 2.38867,1.699219 c 4.81891,3.428199 9.50905,7.018449 14.07226,10.777339 l 2.00977,1.6543 0.0723,-0.0664 1.75,1.53906 0.0137,0.0117 c 0.69358,0.59475 1.3536,1.07199 1.91211,1.56054 l 8.28906,7.25196 c 2.78059,3.33052 6.39253,7.33358 9.67383,9.94336 l 4.54883,5.24804 0.0137,0.0156 c 0.45893,0.51475 0.88978,0.92286 1.23047,1.31054 l 4.51953,5.14258 -0.20899,0.19336 1.77539,2.18945 c 11.72284,14.44616 22.46451,29.63685 29.98829,46.40626 l 6.21093,13.8457 2.72852,6.69336 5.30273,15.47851 c 7.18394,23.00945 10.98219,46.93688 11.33985,71.04102 l 0.002,0.0586 0.10742,2 c 0.0159,0.29271 0.0315,0.58501 0.0469,0.88672 l 0.01,0.18164 v 0.16602 c -9e-5,0.66673 -0.0626,1.38989 -0.0703,2.21484 v 0.0293 l 0.0332,2.89648 -0.11718,-0.008 -0.10157,3.08203 C 523.36897,389.9405 483.63026,463.2541 418.50586,508.52344 l -1.20703,0.83984 -0.008,0.15039 -2.94532,1.96094 c -0.0615,0.0409 -0.17899,0.10893 -0.34765,0.2207 l -0.0117,0.008 -9.72071,6.57032 0.0215,-0.45508 -4.75,2.70508 c -18.76735,10.68498 -38.83607,18.9067 -59.73633,24.45508 l -2.40039,0.63867 0.002,0.0293 -1.62109,0.375 -0.0215,0.006 c -0.96435,0.2389 -1.85373,0.50162 -2.72461,0.70704 l -8.01954,1.89257 -0.0176,-0.25586 -3.32813,0.63282 c -15.26508,2.90163 -30.74808,4.46017 -46.27344,4.49414 h -0.0254 -0.0176 c -7.41588,-0.0225 -14.83786,-0.49277 -22.28125,-1.17969 l -3.0293,-0.28125 -0.0254,0.31641 -7.35352,-1.00196 c -0.75602,-0.1029 -1.55108,-0.27083 -2.4375,-0.40039 l -0.0254,-0.004 -2.65429,-0.33985 0.008,-0.0859 -2.71485,-0.45703 c -30.89139,-5.20435 -60.50926,-16.13444 -87.36718,-32.25 l -2.53711,-1.52343 -0.0742,0.11914 -4.32617,-2.82422 -0.006,-0.004 c -0.21311,-0.13747 -0.36807,-0.2203 -0.45313,-0.27539 l -5.76367,-3.73633 0.16211,-0.26172 -2.32617,-1.63086 C 88.815145,477.31353 56.256675,434.09549 39.015625,384.07812 l -0.966797,-2.80664 -0.298828,0.0996 -2.09375,-6.87695 c 0,0 0.0071,-0.0437 -0.111328,-0.43555 v -0.006 l -1.445313,-4.71875 0.248047,-0.082 -0.736328,-2.73633 c -2.223969,-8.27573 -4.004571,-16.64927 -5.371094,-25.11523 l -0.548828,-3.41016 -0.339844,0.10547 -1.013671,-8.32812 c -0.0751,-0.61741 -0.107719,-1.29693 -0.19336,-2.05274 v -0.01 l -0.279297,-2.33594 0.05664,-0.0176 -0.226563,-2.41015 c -0.633751,-6.74304 -1.083944,-13.46642 -1.171874,-20.1875 v -0.0156 l -0.002,-0.17578 0.0059,-0.16406 c 0.03887,-1.09636 0.149677,-2.22371 0.208984,-3.42969 l 0.150391,-3.04297 h -0.0078 l 0.478516,-7.2832 c 0.02678,-0.40755 0.11662,-0.91621 0.164062,-1.53516 l 0.002,-0.0215 0.318359,-3.73438 0.109375,0.004 0.273437,-2.7832 c 0.918018,-9.33949 2.308588,-18.60527 4.261719,-27.76563 l 0.398438,-1.86523 -0.195313,-0.14844 1.091797,-4.42383 0.01172,-0.0469 2.083984,-8.90625 0.03711,0.0273 3.8125,-11.62109 c 0.155738,-0.4746 0.395169,-1.01119 0.619141,-1.67774 l 0.890625,-2.67383 0.107422,0.0195 0.853516,-2.37304 C 46.728559,200.97612 55.31585,183.67096 65.816406,167.5 l 1.316406,-2.02734 -0.144531,-0.14649 3.285157,-4.77929 c 0.147081,-0.21399 0.357375,-0.47199 0.601562,-0.82422 l 3.398438,-4.93555 0.08984,0.0898 2.074219,-2.76562 C 95.887982,126.19642 120.17201,104.32015 147.9668,87.638632 l 2.49804,-1.498047 -0.0703,-0.125 3.9707,-2.173828 0.0137,-0.0078 c 0.38313,-0.214714 0.67397,-0.41063 0.91601,-0.544922 l 6.09961,-3.384765 0.11914,0.210937 2.5586,-1.292968 c 34.4938,-17.41579 72.52867,-26.752791 111.23239,-27.027317 z"
       sodipodi:nodetypes="ccccccccccccccccccccccccccscccccccccccccccccccccccccccccscscccccccccccccccsccccsccsccscccccccccccccccccccccc" /><path
       id="path25918"
       style="display:inline;fill:#2c3233;fill-opacity:1;stroke:none;stroke-linecap:square"
       inkscape:label="Board"
       d="m 39.501472,373.38629 0.879387,2.89105 0.158203,-0.0527 2.257813,6.55078 c 16.96571,49.21858 49.007461,91.74785 91.648435,121.62695 l 5.42774,3.80274 -0.0899,0.14453 2.46875,1.59961 c -0.002,-0.001 0.002,-0.0146 0.44532,0.27148 l 0.0156,0.01 1.19727,0.78125 5.62109,3.37305 c 26.42929,15.85836 55.57353,26.61491 85.97266,31.73632 l 4.75,0.80079 0.49218,0.0625 0.0586,0.01 c 0.96789,0.14147 1.73692,0.30449 2.39843,0.39453 l 3.15821,0.42969 0.0117,-0.13672 7.0664,0.65234 c 7.36301,0.6795 14.65177,1.14121 21.9043,1.16407 h 0.0215 0.006 0.01 c 15.27028,-0.0334 30.50711,-1.56577 45.54297,-4.42383 l 7.76367,-1.47656 0.004,0.0527 3.42578,-0.80859 c 0.79937,-0.18854 1.65827,-0.44423 2.67969,-0.69727 l 0.0508,-0.0117 0.68359,-0.1582 3.24219,-0.86133 c 20.56649,-5.45977 40.31687,-13.55169 58.78515,-24.0664 l 8.74414,-4.97852 5.45899,-3.68945 0.0254,-0.0195 c 0.36272,-0.24039 0.34375,-0.2168 0.34375,-0.2168 l 1.26758,-0.84375 0.006,-0.10156 2.81836,-1.95899 c 64.08465,-44.54658 103.18977,-116.69021 105.75,-194.50586 l 0.18554,-5.65234 -0.002,-0.1836 v -0.0703 c 0.009,-0.92502 0.0702,-1.62308 0.0703,-2.17773 v -0.0684 l -0.004,-0.0762 v -0.01 c -0.0146,-0.28739 -0.0312,-0.57458 -0.0469,-0.86328 l -0.11328,-2.07813 -0.002,-0.13867 c -0.35179,-23.70822 -4.0868,-47.23915 -11.14649,-69.86523 l -5.24609,-15.3125 -2.66211,-6.5293 -6.17774,-13.77344 c -7.32436,-16.32495 -17.82472,-31.2057 -29.44335,-45.52343 l -4.14454,-5.10743 0.0996,-0.0918 -1.93945,-2.20508 c -0.26114,-0.29717 -0.67817,-0.69148 -1.21094,-1.28906 l -0.0332,-0.0352 -0.25977,-0.29883 -4.35156,-4.61914 c -3.12387,-3.31568 -6.3316,-6.541 -9.63086,-9.67578 l -5.45703,-5.18555 0.0879,-0.0801 -2.53125,-2.21485 c -0.23783,-0.20804 -0.63507,-0.52618 -0.95703,-0.78125 l -0.0195,0.0195 -4.68945,-3.86328 c -4.48931,-3.69801 -9.10644,-7.23115 -13.84961,-10.60547 l -5.56836,-3.960934 0.0898,-0.13086 -2.54101,-1.669922 c -0.65638,-0.43145 -1.45698,-0.869274 -2.4043,-1.476562 l -0.043,-0.02539 -0.38477,-0.253906 -4.17382,-2.548828 C 373.87157,74.236226 340.81945,62.610919 306.41016,58.177734 l -5.49414,-0.708984 -0.002,-0.01758 c -0.39352,-0.05678 -0.87932,-0.125675 -1.2207,-0.160156 l -5.24414,-0.529297 -6.38672,-0.425781 c -4.23603,-0.281859 -8.44516,-0.475402 -12.64062,-0.539063 h -0.01 l -0.0586,-0.002 h -0.002 C 237.26651,56.06206 199.83145,65.248082 165.875,82.392578 l -5.9707,3.015625 -0.043,-0.07617 -2.625,1.455078 c -0.14474,0.0803 -0.42728,0.270878 -0.90235,0.53711 l -0.0293,0.01563 -0.75196,0.412109 -5.52734,3.316406 C 122.67264,107.48458 98.776155,129.01127 79.636719,154.51172 l -3.841797,5.12109 -1.632813,2.36914 -0.0059,0.008 c -0.298261,0.4302 -0.500763,0.67881 -0.585938,0.80273 l -1.410156,2.05078 0.08203,0.084 -3.070313,4.73046 c -10.332741,15.9124 -18.783678,32.94274 -25.210894,50.79474 L 41.96875,226.00781 41.923828,226 c -0.149989,0.39571 -0.322514,0.84294 -0.396484,1.06836 l -3.908203,11.91406 -1.9375,8.28125 -0.01563,0.0547 -0.0039,0.0195 -0.458984,1.85742 0.123047,0.0937 -0.927734,4.35156 c -1.919264,9.00152 -3.288635,18.11997 -4.19336,27.32422 l -0.638672,6.49024 -0.06055,-0.002 c -0.05698,0.70361 -0.141893,1.20295 -0.158203,1.45118 l -0.443359,6.74023 -0.171875,3.52149 c -0.06248,1.27043 -0.171097,2.36136 -0.207031,3.375 l -0.002,0.0664 v 0.0781 c 0.08562,6.58671 0.526498,13.20311 1.154296,19.88281 l 0.439454,4.67578 0.002,0.0195 0.08789,0.92774 c 0.03032,0.36871 0.06736,0.81061 0.101563,1.09179 l 0.435547,3.57422 0.162109,-0.0508 1.283203,7.95703 c 1.345497,8.3357 3.097894,16.5757 5.285156,24.71485 l 1.714844,6.38281 -0.121094,0.0391 0.302735,0.98828 0.0039,0.0117 c 0.164736,0.54494 0.142826,0.51131 0.122384,0.46261 0.0027,0.0121 0.0039,0.0194 0.0041,0.0233 z"
       sodipodi:nodetypes="ccccccccccccccccccccccccccscccccccccccccccccccccccccccccscscccccccccccccccsccccsccsccscccccccccccccccccccccccc" /><path
       style="display:inline;fill:#ffffff;fill-opacity:1;stroke:none;stroke-linecap:square"
       d="m 420.93858,189.96892 -17.5625,13.97852 -4.14843,12.81835 -8.63477,6.67383 -4.68554,0.33594 0.64648,3.23633 -1.75781,3.07812 -7.71485,3.30469 -0.35937,13.69336 7.54297,15.46289 -1.14453,20.96094 -1.90625,9.91406 -15.39844,38.31055 3.67969,18.39844 11.28515,9.83007 8.24024,-0.375 12.43945,8.29493 10.22266,-0.37891 13.92578,11.72656 10.06054,-14.9043 10.26172,4.3418 11.47657,1.91211 4.95117,5.71289 11.9414,4.56641 8.85743,-28.04883 4.10742,-5.22656 2.20117,-16.14453 -3.64453,-6.07422 4.11328,-2.24219 -3.48633,-5.23242 1.19727,-8.7793 8.24023,-8.98828 -0.32812,-5.88281 -6.45313,-0.7168 -10.87891,-12.04492 -1.93945,-13.18164 2.75781,-9.45313 10.07227,-6.34179 v -5.5586 l 18.43555,-18.08789 a 243.8512,243.8512 0 0 0 -12.57422,-31.95703 l -11.29297,0.53906 -4.0332,3.22657 -3.7754,-3.02149 -8.23046,6.35938 -6.54883,-3.85157 -15.5625,4.9336 -5.34375,-5.34375 -10.79883,1.11719 -4.94531,-2.47071 z"
       id="path22952"
       inkscape:label="Pasty Mesa" /><path
       style="display:inline;fill:#ffffff;fill-opacity:1;stroke:none;stroke-linecap:square"
       d="m 339.7921,327.38689 -4.95312,0.43945 -5.03516,18.75781 -9.29688,-0.58203 -3.82031,-2.50976 -0.84179,10.34961 -3.66602,11.12695 13.43164,26.59766 20.85938,28.03515 15.46484,16.39063 13.60351,6.13476 10.20899,11.57032 3.60547,14.41992 4.67773,6.19336 16.5,3.10547 -0.69922,-1.86329 5.34375,-0.59375 6.41211,-11.2832 1.21094,-10.90039 7.43359,-7.29492 10.06641,-6.22656 -12.79883,-7.62305 -2.84961,-10.70313 2.26563,-12.55468 -3.29297,-16.37696 1.4414,-11.36132 -13.8789,-11.6875 -10.13086,0.375 -12.43359,-8.28907 -8.34375,0.37891 -11.58204,-10.08594 -6.20703,12.41211 h -5.38476 l -6.91407,-12.16992 -4.64062,-18.42578 z"
       id="path22966"
       inkscape:label="False Wall South" /><path
       style="display:inline;fill:#ffffff;fill-opacity:1;stroke:none;stroke-linecap:square"
       d="m 308.60069,250.19744 -4.08007,8.27539 -9.71094,8.13672 0.10547,4.0371 9.03125,0.13086 7.27344,11.60938 -1.92774,13.0918 -7.78906,10.74023 -4.20313,9.43359 11.99805,10.45118 13.79492,-4.97852 7.70508,-16.4375 -0.83594,-5.71289 3.22656,-2.01758 -1.55273,-20.8418 -8.42105,-12.88148 -3.65317,-5.89395 z"
       id="path22968"
       inkscape:label="False Wall East"
       sodipodi:nodetypes="cccccccccccccccccc" /><path
       style="display:inline;fill:#ffffff;fill-opacity:1;stroke:none;stroke-linecap:square"
       d="m 195.43663,305.00603 -16.80273,0.74805 -2.74805,6.27929 -9.86133,3.28711 -0.40039,3.74414 -3.01367,0.91602 -0.13281,23.49805 -16.89453,16.09179 -4.20313,10.56836 4.4375,6.6543 0.2832,9.07422 -5.33398,4.5332 0.25586,10.98828 7.99805,19.59375 0.13086,14 8.83593,5.42774 7.47071,0.36132 0.26562,-31.66015 10.7207,-11.25781 3.81641,-15.92383 2.98047,-15.16992 0.66016,-0.51563 7.55859,-28.30664 3.97656,-17.49805 z"
       id="path22970"
       inkscape:label="False Wall West" /><path
       style="display:inline;fill:#ffffff;fill-opacity:1;stroke:none;stroke-linecap:square"
       d="m 221.2628,104.06462 -12.03906,0.48633 -9.07617,8.14453 -18.91406,-0.27344 -11.95703,-4.12305 -0.0352,-0.0625 -6.18945,8.55078 -10.01172,5.60743 -9.70117,11.92968 -9.20313,24.67384 -10.02148,10.80273 0.50781,8.29688 5.75781,8.30078 -0.38867,5.96289 3.50391,2.29101 -0.80079,4.94532 3.17969,2.21289 -7.24805,16.20703 -0.86328,7.78515 -4.69726,0.14258 -2.4375,2.90235 -0.29101,6.59179 93.50948,37.51504 0.18774,-1.18496 15.17383,-14.23437 -44.51172,-36.40039 1.51367,-6.82032 -3.82227,-3.64062 -2.67773,-11.85938 -2.15234,-6.45898 2.68359,-5.55859 -0.37695,-6.19727 2.40234,-5.72656 -1.5332,-3.83399 12.39453,-19.83008 2.71289,-8.33789 3.81641,-1.52539 1.30078,-2.78711 7.26953,-3.91406 1.17773,-5.29297 3.13281,-0.19531 6.64844,-13.86915 1.79102,0.32422 z"
       id="path22972"
       inkscape:label="Plastic Basin"
       sodipodi:nodetypes="cccccccccccccccccccccccccccccccccccccccccccc" /><path
       style="display:inline;fill:#000000;fill-opacity:1;stroke:none;stroke-linecap:square"
       d="m 278.06749,268.33806 -4.625,0.11719 -3.11914,2.73047 -10.22461,3.13476 -11.35156,0.5293 -11.69141,7.79297 -6.92578,12.02344 -3.10351,13.32031 4.77148,7.09765 3.30859,-0.50976 12.02344,8.8164 9.11133,-0.54296 8.13867,14.14257 15.21485,-0.25585 10.5957,-7.62696 0.26562,-8.24609 4.96875,-4.4961 4.83985,-10.86132 7.66992,-10.57813 1.80078,-12.22851 -6.58398,-10.50977 -9.38672,-0.13281 -2.35938,1.87109 h -8.01562 z"
       id="path22986"
       inkscape:label="Polar Sink" /><path
       id="path22993"
       style="display:inline;fill:#646464;fill-opacity:1;stroke:none;stroke-linecap:square"
       inkscape:label="Tuek's Sietch"
       d="m 436.19444,366.09392 -9.66992,14.32813 -1.46094,11.52343 3.30079,16.41407 -2.25782,12.50781 2.61719,9.83789 12.75586,7.5957 21.14453,-17.36914 8.51758,-15.98633 0.39648,-10.82031 2.35938,-11.89648 -12.38086,-4.73243 -4.84766,-5.5957 -11.13867,-1.85547 z"
       sodipodi:nodetypes="ccccccccccccccc" /><path
       id="path23362"
       style="display:inline;fill:#646464;fill-opacity:1;stroke:none;stroke-linecap:square"
       inkscape:label="Habbanya Sietch"
       d="m 104.46984,372.02556 -15.285158,4.14453 -7.001953,10.1836 5.878906,24.29296 17.142575,18.17579 22.78125,-18.17383 -9.30469,-21.36328 0.13282,-6.97071 -2.11719,-6.97851 z"
       sodipodi:nodetypes="cccccccccc" /><path
       id="path23671"
       style="display:inline;fill:#646464;fill-opacity:1;stroke:none;stroke-linecap:square"
       inkscape:label="Sietch Tabr"
       d="m 115.05968,166.11931 -19.947264,14.79492 -0.619141,4.75391 -5.048828,7.15234 -5.439453,1.42383 -1.949219,7.91797 7.896485,10.31641 5.478515,1.21875 5.531245,-3.10352 12.46094,5.2832 6.5918,0.26367 7.22461,1.49415 6.85547,-15.33008 -2.94922,-2.05078 0.79687,-4.91602 -3.42383,-2.24023 0.41016,-6.29493 -5.70117,-8.22265 -0.51367,-8.38672 z"
       sodipodi:nodetypes="cccccccccccccccccccc" /><path
       id="path25115"
       style="display:inline;fill:#646464;fill-opacity:1;stroke:none;stroke-linecap:square"
       inkscape:label="Arakeen"
       d="m 351.70812,103.50212 -15.93164,0.91406 -1.31446,1.50977 2.14649,11.38672 -7.69532,15.87304 -5.98046,5.79688 0.43359,7.63086 12.22461,8.95899 3.89648,8.69726 6.55078,-1.32812 6.76172,1.29492 21.47852,-35.42579 0.11328,-8.71289 -11.28125,-13.35742 z"
       sodipodi:nodetypes="ccccccccccccccc" /><path
       id="path25260"
       style="display:inline;fill:#646464;fill-opacity:1;stroke:none;stroke-linecap:square"
       inkscape:label="Carthag"
       d="m 273.78819,125.39665 -8.91992,4.36719 -16.65625,3.64062 1.98438,10.99219 1.46875,1.53516 1.23047,21.19922 0.61718,1.06445 5.13672,1.80274 5.2461,5.75781 5.39453,-2.25781 13.06836,-0.12891 8.99023,-20.51758 1.01953,-17.68946 -3.45312,-7.3164 z"
       sodipodi:nodetypes="ccccccccccccccc" /><path
       style="display:inline;fill:#ffffff;fill-opacity:1;stroke:none;stroke-linecap:square;stroke-opacity:1"
       d="m 426.08116,158.53923 -15.49414,1.46289 -11.60351,14.34766 -0.40821,5.16406 -17.10156,12.86133 h -5.50976 l -32.64649,18.92188 h -4.99219 l -3.54687,1.2207 -11.62695,16.40625 1.89843,4.34179 -15.71289,15.7129 11.2461,7.33007 3.78125,5.66993 11.72265,-5.30469 2.14258,-3.88477 13.87695,-5.35742 6.6875,1.00977 2.85743,-7.27344 4.20703,-1.08594 2.65039,-4.24023 7.14648,-2.34961 0.0274,-1.04492 8.11523,-3.47852 1.25781,-2.19922 -0.86133,-4.30078 5.86719,-0.41797 7.94922,-6.14062 4.14258,-12.81055 18.44141,-14.67578 8.76562,-5.42383 10.30859,-17.74414 -0.33007,-3.17383 z"
       id="path28516"
       inkscape:label="Shield Wall"
       sodipodi:nodetypes="cccccccccccccccccccccccccccccccccc" /><path
       style="display:inline;fill:#ffffff;fill-opacity:1;stroke:none;stroke-linecap:square"
       d="m 425.91124,160.5625 11.58008,3.0957 0.12109,1.16016 -9.72656,16.74219 -8.44336,5.22461 -19.00586,15.125 -4.13867,12.79687 -6.98047,5.39258 -7.5293,0.53516 1.16016,5.79296 -0.55469,0.9668 -8.67578,3.71875 -0.0254,0.91797 -6.49609,2.13672 -2.60938,4.17578 -4.42383,1.14258 -2.64648,6.73828 -5.63672,-0.84961 -15.05078,5.81055 -2.17383,3.9414 -9.56836,4.33008 -3.06836,-4.59961 -9.52343,-6.20898 14.93359,-14.9336 -1.99219,-4.55664 10.60156,-14.95898 2.61915,-0.90234 h 5.19726 L 376.50108,194.375 h 5.64063 l 18.35547,-13.80469 0.43164,-5.44531 10.68555,-13.21289 z"
       id="path22959"
       inkscape:label="Shield Wall"
       sodipodi:nodetypes="cccccccccccccccccccccccccccccccccc" /><path
       style="display:inline;fill:#ffffff;fill-opacity:1;stroke:none;stroke-linecap:square"
       d="m 309.39757,253.10352 8.70117,5.66992 3.42774,5.53515 8.15429,12.46875 1.42383,19.12305 -3.31055,2.07031 0.9375,6.41211 -7.09765,15.14258 -11.90821,4.29688 -9.99804,-8.70704 3.51562,-7.89062 7.95508,-10.96875 2.10742,-14.30664 -8.24219,-13.15625 -8.19921,-0.11914 -0.0293,-1.15235 9.29297,-7.7871 z"
       id="path28521"
       inkscape:label="False Wall East"
       sodipodi:nodetypes="cccccccccccccccccc" /><path
       style="display:inline;fill:#ffffff;fill-opacity:1;stroke:none;stroke-linecap:square"
       d="m 420.11046,193.18359 2.77539,6.66211 6.13281,3.0625 10.43164,-1.07812 5.5293,5.5293 15.87109,-5.03126 6.94727,4.08594 8.05664,-6.22656 3.79688,3.03906 4.77734,-3.82031 9.26758,-0.44141 c 4.48326,9.52522 8.34163,19.32959 11.54687,29.35743 l -18.12695,17.7832 v 5.29297 l -9.7793,6.1582 -3.09375,10.60156 2.0918,14.21289 11.79492,13.0586 5.52539,0.61328 0.1875,3.35156 -8.09375,8.82813 -1.38476,10.14843 2.69531,4.04493 -4.02539,2.19336 4.35351,7.25781 -2.03125,14.91015 -3.99609,5.08594 -8.32812,26.37305 -9.48829,-3.62891 -5.09765,-5.8789 -11.95313,-1.99219 -11.56054,-4.89063 -9.73829,14.42383 -12.81445,-10.79101 -10.34765,0.38476 -12.44727,-8.30078 -8.0957,0.36719 -10.16602,-8.85547 -3.42969,-17.14453 15.24805,-37.9375 1.96875,-10.23633 1.17969,-21.61524 -7.55469,-15.48632 0.3125,-11.92774 7.15234,-3.0625 2.46094,-4.31054 -0.34961,-1.7461 3.02735,-0.2168 9.60156,-7.41992 4.15234,-12.83398 z"
       id="path29146"
       inkscape:label="Pasty Mesa" /><path
       style="display:inline;fill:#ffffff;fill-opacity:1;stroke:none;stroke-linecap:square"
       d="m 339.03819,329.46094 4.70508,4.70508 4.57227,18.15429 7.62304,13.41797 h 7.78516 l 5.60547,-11.20898 10.23828,8.91797 8.48828,-0.38672 12.42578,8.28515 10.00391,-0.37109 12.45703,10.48828 -1.3457,10.60547 3.28125,16.32422 -2.27539,12.61914 3.17383,11.91992 10.66601,6.35352 -7.45312,4.61132 -8.09961,7.95118 -1.2461,11.19922 -5.70312,10.0371 -6.88477,0.76563 0.35352,0.94531 -12.24805,-2.30664 -3.96875,-5.25195 -3.62305,-14.4961 -10.8164,-12.25976 -13.63281,-6.14649 -15.11719,-16.02148 -20.68555,-27.80273 -12.97851,-25.70313 3.48046,-10.56445 0.5879,-7.22657 1.44531,0.94922 11.45898,0.7168 5.09571,-18.98633 z"
       id="path30505"
       inkscape:label="False Wall South" /><path
       style="display:inline;fill:#ffffff;fill-opacity:1;stroke:none;stroke-linecap:square"
       d="m 219.21007,106.14844 -0.17383,7.07812 -0.99414,-0.17968 -6.79883,14.18554 -3.46289,0.2168 -1.30664,5.86719 -7.04687,3.79492 -1.2461,2.66992 -3.95117,1.58008 -2.92969,8.99805 -12.80078,20.48046 1.60547,4.01563 -2.26562,5.40039 0.375,6.14258 -2.81055,5.81836 2.375,7.12304 2.79101,12.36524 3.44336,3.27734 -1.53515,6.92188 43.69726,35.73437 -13.52148,12.6836 -90.25586,-36.21094 0.19922,-4.4961 1.42383,-1.69726 5.53906,-0.16797 1.01953,-9.20117 7.79687,-17.4336 -3.50585,-2.43945 0.80664,-4.98633 -3.61329,-2.36328 0.35743,-5.49414 -5.83594,-8.41406 -0.42188,-6.88477 9.70899,-10.46484 9.22461,-24.73828 9.2539,-11.37891 10.0625,-5.63476 5.54883,-7.66602 10.92188,3.76758 20.01758,0.28906 9.12304,-8.1875 z"
       id="path30785"
       inkscape:label="Plastic Basin"
       sodipodi:nodetypes="cccccccccccccccccccccccccccccccccccccccccccc" /><path
       style="display:inline;fill:#ffffff;fill-opacity:1;stroke:none;stroke-linecap:square"
       d="m 193.43663,307.09766 v 13.11328 l -3.92773,17.2832 -7.36524,27.58594 -0.7207,0.5625 -3.11523,15.85351 -3.6836,15.36719 -10.89453,11.44141 -0.25391,30.36914 -4.87695,-0.23633 -7.45703,-4.58008 -0.125,-13.27734 -8.00195,-19.60547 -0.22657,-9.66797 5.3418,-4.53906 -0.33203,-10.60938 -4.17188,-6.25586 3.65626,-9.18945 17.1914,-16.37305 0.12891,-22.87304 2.86914,-0.87305 0.40429,-3.7832 9.48633,-3.16016 2.60547,-5.95312 z"
       id="path31341"
       inkscape:label="False Wall West" /><path
       style="display:inline;fill:#ffffff;fill-opacity:1;stroke:none;stroke-linecap:square"
       d="m 381.79601,125.55681 -3.86719,4.64062 -2.59375,-0.38867 -28.13672,46.41211 0.81836,5.3086 -2.75391,2.63281 1.39063,1.14258 11.43555,-7.06641 -0.4043,-3.36914 7.26562,-3.76758 0.14454,-3.6289 3.73242,0.14453 5.34765,-9.89063 3.85157,-7.8984 1.74609,-10.20312 4.61523,-4.74805 v -7.79492 z"
       id="path27800"
       inkscape:label="Rim Wall West"
       sodipodi:nodetypes="cccccccccccccccccc" /><path
       style="display:inline;fill:#ffffff;fill-opacity:1;stroke:none;stroke-linecap:square"
       d="m 382.13281,127.49609 0.75586,0.44532 v 6.32617 l -4.51562,4.64648 -1.78907,10.45117 -3.73632,7.66211 -4.89649,9.05469 -4.29492,-0.16601 -0.16797,4.2539 -7.41601,3.8457 0.41406,3.45118 -6.91797,4.27539 -0.80274,-5.21094 27.33594,-45.08984 2.43946,0.36523 z"
       id="path27803"
       inkscape:label="Rim Wall West"
       sodipodi:nodetypes="cccccccccccccccccc" /></g><g
     id="g3171"
     inkscape:groupmode="layer"
     inkscape:label="Territories"
     style="display:inline"><path
       style="display:inline;fill:#ffffff;fill-opacity:1;stroke:none;stroke-linecap:square"
       d="m 418.87023,198.00586 1.67578,4.02344 7.91211,3.95312 9.8789,-1.02344 5.81055,5.8125 16.33398,-5.17968 7.54493,4.4375 7.79492,-6.02344 3.83008,3.06445 5.89062,-4.71484 6.23047,-0.29688 c 3.81854,8.2907 7.16049,16.78585 10.00586,25.45899 l -17.66211,17.32812 v 4.89844 l -9.3418,5.88086 -3.59375,12.32227 2.31836,15.75976 13.16797,14.57813 3.74219,0.41601 -7.50586,8.18555 -1.66406,12.20508 1.5039,2.25781 -3.89062,2.12109 5.42187,9.03516 -1.78125,13.05859 -3.83008,4.875 -7.5332,23.85743 -5.81055,-2.22266 -5.3125,-6.12891 -12.66601,-2.10937 -13.51367,-5.7168 -9.25196,13.70703 -11.14843,-9.38867 -10.53711,0.39062 -12.45899,-8.30859 -7.87695,0.35938 -8.49024,-7.39453 -3.05273,-15.26563 15.02149,-37.375 2.0625,-10.7207 1.23242,-22.59766 -7.57618,-15.5293 0.24415,-9.26757 6.31054,-2.70313 3.22266,-5.64062 0.92773,-0.0664 11.05274,-8.54297 4.16015,-12.85547 z"
       id="Territory_0"
       inkscape:label="Pasty Mesa" /><path
       id="Territory_1"
       style="display:inline;fill:#646464;fill-opacity:1;stroke:none;stroke-linecap:square"
       inkscape:label="Tuek's Sietch"
       d="m 436.93077,368.57812 8.03711,3.4004 10.66211,1.77539 4.70313,5.43164 11.27539,4.31054 -2.0625,10.39649 -0.38477,10.51562 -8.11719,15.23438 -19.74804,16.2207 -10.84766,-6.45898 -2.29297,-8.6211 2.24414,-12.44336 -3.31054,-16.46679 1.35937,-10.72657 z"
       sodipodi:nodetypes="ccccccccccccccc" /><path
       style="display:inline;fill:#2c3233;fill-opacity:1;stroke:none;stroke-linecap:square"
       d="m 460.02648,144.10954 -19.28125,17.72071 0.38671,3.74023 -10.74804,18.5 -8.21337,4.99296 3.3872,8.28829 4.09961,2.05078 11.06054,-1.14453 5.21094,5.21094 15.3418,-4.86523 6.26562,3.68554 8.35352,-6.45508 3.76172,3.00977 3.50586,-2.80469 11.09765,-0.52734 c -9.185,-18.51546 -20.68672,-35.78805 -34.22851,-51.40235 z"
       id="Territory_2"
       inkscape:label="Gara Kulon"
       sodipodi:nodetypes="cccccccccccccccc" /><path
       style="display:inline;fill:#2c3233;fill-opacity:1;stroke:none;stroke-linecap:square"
       d="m 437.04601,120.87321 -17.66407,16.06836 -4.38086,8.11524 0.40626,9.08085 -3.51976,4.31137 14.31468,-1.3512 13.62695,3.64257 19.31641,-17.75391 c -6.88596,-7.83621 -14.26766,-15.22248 -22.09961,-22.11328 z"
       id="Territory_3"
       inkscape:label="Sihaya Ridge"
       sodipodi:nodetypes="ccccccccc" /><path
       style="display:inline;fill:#2c3233;fill-opacity:1;stroke:none;stroke-linecap:square"
       d="m 409.96202,99.984541 -14.24414,21.066409 -9.90625,5.34375 v 9.05859 l -4.71094,4.8457 -1.71875,9.86757 -2.98069,6.19895 4.21312,0.0702 7.4414,-5.31641 8.92188,-0.39844 8.66406,-6.39844 8.29687,-0.28906 4.30665,-7.98047 17.79296,-16.1875 c -8.23615,-7.20451 -16.94789,-13.84647 -26.07617,-19.880849 z"
       id="Territory_4"
       inkscape:label="Basin"
       sodipodi:nodetypes="ccccccccccccccc" /><path
       style="display:inline;fill:#2c3233;fill-opacity:1;stroke:none;stroke-linecap:square"
       d="m 413.59679,145.46892 -7.46485,0.25976 -8.6582,6.39454 -8.93359,0.40039 -7.48242,5.34375 -5.28125,-0.10742 -6.11914,11.3125 -3.19727,-0.12305 -0.12109,3.03516 -7.125,3.69335 0.39648,3.29297 -12.04492,7.44336 -9.13086,23.46094 h 4.5 l 32.64648,-18.92188 h 5.41602 l 16.21094,-12.1914 0.39257,-4.96289 11.00586,-13.60938 5.35157,-6.39062 z"
       id="Territory_5"
       inkscape:label="Hole In the Wall"
       sodipodi:nodetypes="ccccccccccccccccccccc" /><path
       style="display:inline;fill:#2c3233;fill-opacity:1;stroke:none;stroke-linecap:square"
       d="m 375.61632,235.00603 -6.17383,2.02734 -2.67773,4.28516 -4.05469,1.04687 -3.00586,7.65235 -7.4375,-1.12305 -13.04102,5.03516 -2.12109,3.8457 -11.9778,5.43727 7.90163,12.43187 1.64453,22.06445 -3.16797,1.98047 0.76172,5.21485 -7.79297,16.625 9.73047,4.92578 6.125,-0.54492 6.50391,6.5039 4.6875,18.61914 6.41015,11.28125 h 3.67578 l 6.33789,-12.67383 -3.60742,-18.04101 15.50586,-38.57617 1.86133,-9.68555 1.11914,-20.49609 -7.5332,-15.44336 z"
       id="Territory_6"
       inkscape:label="The Minor Erg"
       sodipodi:nodetypes="ccccccccccccccccccccccccccc" /><path
       style="display:inline;fill:#ffffff;fill-opacity:1;stroke:none;stroke-linecap:square"
       d="m 425.66124,163.60156 7.95117,2.125 -7.94726,13.68164 -7.95313,4.91992 -19.85156,15.79883 -4.13086,12.77344 -5.5293,4.26953 -10.02343,0.71485 1.48632,7.41601 -8.89453,3.8125 -0.0195,0.72852 -5.52148,1.81445 -2.55274,4.08398 -4.74414,1.22461 -2.33203,5.9375 -4.05664,-0.61328 -16.8125,6.49024 -2.21875,4.02539 -6.3418,2.86914 -1.99609,-2.99414 -6.94141,-4.52539 13.76563,-13.76563 -2.13281,-4.8789 9.0625,-12.78711 1.23632,-0.42578 h 5.49805 L 377.30968,197.375 h 5.83398 l 20.23828,-15.2207 0.4629,-5.86328 9.30664,-11.50782 z"
       id="Territory_7"
       inkscape:label="Shield Wall"
       sodipodi:nodetypes="cccccccccccccccccccccccccccccccccc" /><path
       style="display:inline;fill:#2c3233;fill-opacity:1;stroke:none;stroke-linecap:square"
       d="m 508.03234,230.38103 -17.49219,17.16016 v 5.74804 l -10.28125,6.47266 -2.51953,8.63672 1.83203,12.44922 10.22656,11.32226 7.11328,0.79102 0.33984,6.11133 21.85352,1.29101 a 243.8512,243.8512 0 0 0 -11.07226,-69.98242 z"
       id="Territory_8"
       inkscape:label="Red Chasm" /><path
       style="display:inline;fill:#2c3233;fill-opacity:1;stroke:none;stroke-linecap:square"
       d="m 497.33116,300.50212 0.008,0.14258 -8.34375,9.10352 -1.06446,7.80468 4.05078,6.07618 -4.17773,2.27734 3.14062,5.23242 -2.32226,17.02344 -4.18555,5.32617 -9.11328,28.85742 -2.36719,11.94532 -0.40429,11.0332 -8.80469,16.52734 -22.5332,18.50782 -10.09961,6.24804 -6.95899,6.82813 -1.1875,10.6875 -6.91406,12.16992 -4.25,0.4707 1.33008,3.54688 -1.19336,24.32422 a 243.8512,243.8512 0 0 0 107.28515,-201.98829 243.8512,243.8512 0 0 0 -0.0449,-0.85351 z"
       id="Territory_9"
       inkscape:label="South Mesa" /><path
       style="display:inline;fill:#ffffff;fill-opacity:1;stroke:none;stroke-linecap:square"
       d="m 338.56554,333.23047 2.47265,2.47265 4.4668,17.74415 8.6875,15.29101 h 11.38477 l 4.70117,-9.40234 8.22461,7.16211 8.70703,-0.39649 12.41406,8.27735 9.81641,-0.36329 10.32031,8.68946 -1.20117,9.47461 3.26562,16.24609 -2.29492,12.71094 3.66016,13.74805 7.47265,4.44921 -3.53515,2.1875 -9.10352,8.93164 -1.29297,11.64454 -4.64453,8.17382 -7.84961,0.8711 -7.38281,-1.38867 -2.89648,-3.83789 -3.65625,-14.61329 -11.72657,-13.29101 -13.68359,-6.17188 -14.58594,-15.45898 -20.42773,-27.45508 -12.30274,-24.36133 3.20508,-9.72461 0.3086,-3.79101 12.48437,0.78125 z"
       id="Territory_10"
       inkscape:label="False Wall South" /><path
       style="display:inline;fill:#2c3233;fill-opacity:1;stroke:none;stroke-linecap:square"
       d="m 324.96202,393.08025 -4.79492,16.44531 -6.91797,6.26367 2.82813,15.16992 14.02148,18.73829 -5.17187,10.48046 0.50976,7.53711 7.06055,15.05274 1.35742,15.89453 -4.53125,10.5332 2.10547,30.72657 a 243.8512,243.8512 0 0 0 79.03906,-34.27735 l 1.23047,-25.10937 -0.58594,-1.56055 -17.88672,-3.36719 -5.18359,-6.86523 -3.58984,-14.36328 -9.7793,-11.08203 -13.58008,-6.12305 -15.71484,-16.65625 z"
       id="Territory_11"
       inkscape:label="Cielago East" /><path
       style="display:inline;fill:#2c3233;fill-opacity:1;stroke:none;stroke-linecap:square"
       d="m 314.19444,460.89079 -15.29687,6.51758 h -11.93555 l -20.14062,4.00196 -11.2168,-0.65235 -6.91992,7.42383 -0.78516,20.68359 4.19336,15.82813 -5.2832,6.77344 -1.78125,23.04297 a 243.8512,243.8512 0 0 0 30.3457,1.98828 243.8512,243.8512 0 0 0 54.64453,-6.32422 l -2.13867,-31.22461 4.52735,-10.52149 -1.30665,-15.28711 -7.06445,-15.0625 -0.4375,-6.45703 z"
       id="Territory_12"
       inkscape:label="Cielago South" /><path
       style="display:inline;fill:#2c3233;fill-opacity:1;stroke:none;stroke-linecap:square"
       d="m 196.47765,457.87712 -13.77344,12.5918 -16.00586,0.26563 -22.81641,36.69726 a 243.8512,243.8512 0 0 0 99.72657,36.98438 l 1.8164,-23.48633 5.11133,-6.55469 -4.06836,-15.35156 0.81446,-21.42383 6.08984,-6.5332 -20.89844,-0.19532 -16.34766,-8.90429 -11.76757,1.33593 z"
       id="Territory_13"
       inkscape:label="Meridian" /><path
       style="display:inline;fill:#2c3233;fill-opacity:1;stroke:none;stroke-linecap:square"
       d="m 213.99085,410.4298 -5.94875,4.31256 1.49414,4.72851 -2.5918,16.49805 -8.51367,9.44531 -1.16797,11.27539 7.46485,5.14063 11.68359,-1.32813 16.43164,8.94922 21.8457,0.20313 0.33008,-0.35547 11.70313,0.67969 20.10156,-3.99219 h 11.7832 l 15.35157,-6.54102 9.54296,0.74219 -0.0195,-0.29492 4.95508,-10.04102 -13.69726,-18.30664 -2.45313,-13.1582 -7.94922,12.03516 -10.39062,7.4414 -25.28125,-18.82812 -11.09571,-0.12696 -4.57226,3.90039 -29.98047,-4.34179 z"
       id="Territory_14"
       inkscape:label="Cielago Depression"
       sodipodi:nodetypes="ccccccccccccccccccccccccccc" /><path
       style="display:inline;fill:#2c3233;fill-opacity:1;stroke:none;stroke-linecap:square"
       d="m 296.7628,317.07439 -4.90429,4.43555 -0.25,7.75781 19.60156,34.09765 3.23047,-9.80859 1.02344,-12.57031 5.50781,3.61914 7.75976,0.48437 4.68164,-17.4414 -10.07031,-5.09961 -14.34961,5.17773 z"
       id="Territory_15"
       inkscape:label="Harg Pass" /><path
       style="display:inline;fill:#ffffff;fill-opacity:1;stroke:none;stroke-linecap:square"
       d="m 310.59288,257.46484 5.15039,3.35547 11.00196,16.94336 1.23242,16.55469 -3.43555,2.14844 1.0918,7.45703 -6.18946,13.20117 -9.08007,3.27734 -6.99414,-6.09179 2.48632,-5.58008 8.20313,-11.31055 2.375,-16.12695 -9.69531,-15.47656 -3.14453,-0.0449 4.94531,-4.14257 z"
       id="Territory_16"
       inkscape:label="False Wall East" /><path
       style="display:inline;fill:#000000;fill-opacity:1;stroke:none;stroke-linecap:square"
       d="m 277.23351,270.35938 5.29883,5.5664 h 9.57031 l 2.3457,-1.86133 7.58594,0.10743 5.61523,8.96484 -1.62109,11.01172 -7.50586,10.35156 -4.75195,10.66602 -5.28516,4.78125 -0.26172,8.11132 -9.28711,6.68555 -13.41015,0.22656 -8.16797,-14.19336 -9.625,0.57422 -12.11328,-8.88086 -2.8711,0.44336 -3.57812,-5.32226 2.83984,-12.1836 6.54297,-11.36132 10.83984,-7.22461 11.05078,-0.51563 10.875,-3.33398 2.89454,-2.53516 z"
       id="Territory_17"
       inkscape:label="Polar Sink" /><path
       style="display:inline;fill:#2c3233;fill-opacity:1;stroke:none;stroke-linecap:square"
       d="m 255.88194,325.07244 -46.1289,75.16992 4.76532,8.74402 9.12726,8.13488 28.91796,4.18555 4.48829,-3.82812 12.09179,0.13867 24.82032,18.48437 9.33007,-6.68359 8.61524,-13.04688 -0.20508,-1.10351 7.20898,-6.52735 5.04297,-17.29101 -12.69922,-25.14844 -20.57812,-35.79297 -10.61328,7.64258 -16.5,0.27734 z"
       id="Territory_18"
       inkscape:label="Cielago North"
       sodipodi:nodetypes="cccccccccccccccccc" /><path
       style="display:inline;fill:#2c3233;fill-opacity:1;stroke:none;stroke-linecap:square"
       d="m 227.54991,311.31462 -8.87109,3.10547 -14.08789,36.07422 0.39258,18.63281 9.48633,20.70508 40.17382,-65.46289 -7.9414,0.47266 -11.96094,-8.77149 -3.61914,0.55664 z"
       id="Territory_19"
       inkscape:label="Wind Pass North" /><path
       style="display:inline;fill:#2c3233;fill-opacity:1;stroke:none;stroke-linecap:square"
       d="m 203.21788,352.95915 -18.68164,14.59571 -2.88476,14.67969 -3.91211,16.32226 -10.59766,11.12891 -0.26172,31.49023 5.38672,8.48438 -5.44141,19.64843 15.31641,-0.2539 13.70898,-12.53321 1.21289,-11.71484 8.54102,-9.47656 2.47266,-15.75 -1.70313,-5.39649 6.75556,-4.80977 -5.00165,-9.20585 5.44726,-8.875 -10.00781,-21.8418 z"
       id="Territory_20"
       inkscape:label="Cielago West"
       sodipodi:nodetypes="ccccccccccccccccccc" /><path
       style="display:inline;fill:#ffffff;fill-opacity:1;stroke:none;stroke-linecap:square"
       d="m 190.43663,310.23242 v 9.65039 l -3.83203,16.85742 -7.09961,26.59375 -0.81055,0.63282 -3.3164,16.87695 -3.48438,14.53906 -11.15234,11.71094 -0.24024,28.43164 -0.99023,-0.0469 -5.38477,-3.3086 -0.11523,-12.1914 -8.01172,-19.62696 -0.17969,-7.68359 5.35352,-4.55078 -0.40234,-12.90821 -3.77539,-5.66015 2.82812,-7.11133 17.64258,-16.80469 0.12305,-21.93945 2.65429,-0.80664 0.41016,-3.83789 8.92187,-2.97461 2.39063,-5.46484 z"
       id="Territory_21"
       inkscape:label="False Wall West" /><path
       id="Territory_22"
       style="display:inline;fill:#646464;fill-opacity:1;stroke:none;stroke-linecap:square"
       inkscape:label="Habbanya Sietch"
       d="m 104.46984,374.09766 10.63476,2.8789 1.70313,5.61524 -0.13477,7.09179 8.86719,20.35743 -20.14258,16.07031 -15.517576,-16.45313 -5.542969,-22.90625 6.080079,-8.84375 z"
       sodipodi:nodetypes="cccccccccc" /><path
       id="Territory_23"
       style="display:inline;fill:#2c3233;fill-opacity:1;stroke:none;stroke-linecap:square"
       d="M 98.557729,355.22087 42.790151,373.81072 A 243.8512,243.8512 0 0 0 142.7003,506.64079 l 22.19727,-35.70312 5.82812,-21.04883 -4.87304,-7.67383 -8.29883,-0.40039 -9.81836,-6.03125 -0.13477,-14.51562 -7.99414,-19.58399 -0.27734,-11.92968 5.32813,-4.52735 -0.25,-7.98242 -4.10157,-6.15234 -8.26758,-2.61133 -10.56835,-5.8125 -6.27539,-0.13672 -5.34766,-6.28516 z m 5.912111,15.33008 13.35937,3.61914 2.41211,7.94727 -0.13281,6.88476 9.61718,22.07813 -24.14648,19.26172 -0.51172,0.4082 -18.300777,-19.40234 -6.115234,-25.27539 7.65625,-11.13868 z"
       inkscape:label="Habbanya Ridge Flat" /><path
       style="display:inline;fill:#2c3233;fill-opacity:1;stroke:none;stroke-linecap:square"
       d="m 133.27843,325.25994 -14.89062,2.76757 -15.05079,-0.26562 -19.488276,4.0039 -40.339843,-4.52539 -10.001954,3.10352 a 243.8512,243.8512 0 0 0 8.845704,42.11328 l 56.037109,-18.67969 12.16406,1.10547 5.31055,6.24024 5.98437,0.13086 10.75195,5.91211 7.49024,2.36523 4.28515,-10.77734 16.6836,-15.88868 0.0469,-8.43164 -10.06836,-7.05859 -12.07226,0.79688 z"
       id="Territory_24"
       inkscape:label="Habbanya Erg" /><path
       style="display:inline;fill:#2c3233;fill-opacity:1;stroke:none;stroke-linecap:square"
       d="m 32.254994,290.52361 c -0.344751,4.03431 -0.588967,8.07657 -0.732422,12.12304 0.114185,8.78384 0.702934,17.55509 1.763672,26.2754 l 10.085938,-3.13086 40.410156,4.53515 19.421872,-3.99023 15.06446,0.26562 15.2246,-2.82812 5.77149,2.95117 12.17968,-0.80273 9.67188,6.78124 0.0762,-13.77734 3.11719,-0.94922 0.39844,-3.71679 10.12695,-3.37696 2.84961,-6.51172 18.20235,-0.83203 2.34843,-4.34961 v -4.22851 z"
       id="Territory_25"
       inkscape:label="The Greater Flat"
       sodipodi:nodetypes="cccccccccccccccccccc" /><path
       style="display:inline;fill:#2c3233;fill-opacity:1;stroke:none;stroke-linecap:square"
       d="m 229.74718,258.98064 -14.44336,13.54883 -3.06836,11.47461 -12.57812,10.84765 v 4.62305 l -2.58683,5.21105 -0.212,15.91395 -4.01758,17.67969 -7.07813,26.50976 17.41797,-13.60742 -0.0195,-0.94141 14.42969,-36.94726 9.13672,-3.19922 -1.22852,-1.82617 3.29297,-14.12891 7.19727,-12.49609 11.31054,-7.53906 z"
       id="Territory_26"
       inkscape:label="Wind Pass"
       sodipodi:nodetypes="cccccccccccccccccc" /><path
       style="display:inline;fill:#2c3233;fill-opacity:1;stroke:none;stroke-linecap:square"
       d="m 38.229604,249.53142 c -3.043384,13.00655 -5.012901,26.24118 -5.888672,39.57031 l 166.638668,4.45703 11.99414,-10.3457 2.50172,-8.96786 -31.89453,-12.49805 -0.0681,2.33505 -18.07422,3.36328 -5.42773,-4.47656 -18.88086,-2.36133 -27.0039,4.52344 -19.503908,0.13476 -13.341797,-4.80273 -28.097656,-1.07031 z"
       id="Territory_27"
       inkscape:label="The Great Flat"
       sodipodi:nodetypes="ccccccccccccccc" /><path
       style="display:inline;fill:#2c3233;fill-opacity:1;stroke:none;stroke-linecap:square"
       d="m 43.979604,229.37908 a 243.8512,243.8512 0 0 0 -5.394532,18.63476 l 13.101563,9.97461 27.86914,1.06055 13.310547,4.79101 19.136718,-0.13086 27.09765,-4.53906 19.4961,2.4375 5.23437,4.31836 16.30469,-3.03516 0.0645,-1.58789 -60.91601,-24.7539 -9.84765,4.72656 -10.966802,0.27734 -5.458984,-5.04882 -5.888672,-2.67579 -1.533203,-1.65234 -15.382813,4.30078 -10.839844,0.55664 -4.58789,-5.80468 z"
       id="Territory_28"
       inkscape:label="Funeral Plain" /><path
       style="display:inline;fill:#2c3233;fill-opacity:1;stroke:none;stroke-linecap:square"
       d="m 254.22374,169.95134 3.83789,22.00781 -7.52539,11.02149 -2.10742,18.30664 v 14.83398 l 4.04492,3.6543 1.9668,6.74219 -1.7207,10.84961 8.09765,15.24609 8.79883,-2.69922 3.27539,-2.86718 5.04883,-0.13086 3.7832,-16.05079 -2.33984,-2.99218 0.13672,-17.98047 1.46093,-3.41016 -2.95117,-2.82226 1.34766,-18.19922 -2.54883,-9.1211 5.28906,-21.54492 -12.53515,0.12305 -6.06446,2.53906 -5.67968,-6.23437 z"
       id="Territory_29"
       inkscape:label="Arsunt" /><path
       style="display:inline;fill:#ffffff;fill-opacity:1;stroke:none;stroke-linecap:square"
       d="m 380.88867,132.11328 v 1.34375 l -4.38281,4.50781 -1.84375,10.77735 -3.61133,7.40625 -4.26367,7.88672 -5.04883,-0.19532 -0.20312,5.08985 -7.61328,3.94922 0.42773,3.55664 -3.26563,2.01757 -0.23242,-1.50781 26.26953,-43.33008 2.23633,0.33594 z"
       id="Territory_30"
       inkscape:label="Rim Wall West"
       sodipodi:nodetypes="cccccccccccccccccc" /><path
       style="display:inline;fill:#2c3233;fill-opacity:1;stroke:none;stroke-linecap:square"
       d="m 299.39171,60.275557 1.42383,18.607421 -4.82617,6.31836 5.8789,-0.322266 13.59961,2.720703 8.74414,7.683594 6.36328,0.134766 5.3086,7.566405 15.98242,-0.91797 12.05078,3.42383 11.9043,14.09375 -0.11524,8.8418 1.64063,0.24609 4.1289,-4.95312 3.01172,1.77148 10.24805,-5.52539 14.09375,-20.84375 A 243.8512,243.8512 0 0 0 299.39171,60.275557 Z"
       id="Territory_31"
       inkscape:label="Old Gap" /><path
       style="display:inline;fill:#2c3233;fill-opacity:1;stroke:none;stroke-linecap:square"
       d="M 275.37413,58.795088 A 243.8512,243.8512 0 0 0 159.95616,88.759932 l 10.29492,18.371088 11.23047,3.8711 18.12891,0.26172 9.04492,-8.11328 13.33399,-0.53907 19.66992,-7.310543 22.53711,-4.425781 18.53125,1.314453 4.03906,-4.560547 7.05273,-1.933594 5.53516,-7.246093 -1.39648,-18.261719 a 243.8512,243.8512 0 0 0 -22.58399,-1.392578 z"
       id="Territory_32"
       inkscape:label="Broken Land" /><path
       style="display:inline;fill:#2c3233;fill-opacity:1;stroke:none;stroke-linecap:square"
       d="M 158.69054,89.410322 A 243.8512,243.8512 0 0 0 76.040151,164.51189 l 13.115234,13.22656 3.701172,-0.26367 2.058594,1.81445 20.019529,-14.84765 8.17578,4.34961 9.79102,-10.55469 9.18554,-24.62891 10.02149,-12.32227 9.97461,-5.58594 6.39257,-8.83007 z"
       id="Territory_33"
       inkscape:label="Rock Outcroppings" /><path
       id="Territory_34"
       style="display:inline;fill:#646464;fill-opacity:1;stroke:none;stroke-linecap:square"
       inkscape:label="Sietch Tabr"
       d="m 115.23546,168.47852 5.55078,2.95507 0.47852,7.82618 5.62304,8.10937 -0.4414,6.76367 3.31445,2.16797 -0.79101,4.87695 2.62304,1.82422 -5.52344,12.34766 -5.81054,-1.20117 -6.38867,-0.25586 -13.03125,-5.52344 -5.718751,3.20898 -4.023438,-0.89453 -6.871094,-8.97461 1.435547,-5.83007 4.996094,-1.3086 5.755859,-8.15234 0.572266,-4.4043 z"
       sodipodi:nodetypes="cccccccccccccccccccc" /><path
       style="display:inline;fill:#2c3233;fill-opacity:1;stroke:none;stroke-linecap:square"
       d="m 75.239369,165.72673 a 243.8512,243.8512 0 0 0 -30.861328,62.27735 l 11.177734,1.91406 4.472657,5.65625 9.947265,-0.50977 16.064454,-4.49414 1.93164,2.08008 5.837891,2.65234 5.201172,4.8125 10.085936,-0.25585 9.83008,-4.71876 0.30078,-6.83789 3.1582,-3.75976 4.09766,-0.125 0.5957,-5.36328 -7.23828,-1.49805 -6.73437,-0.26953 -12.05664,-5.11133 -5.396488,3.02734 -6.515625,-1.44726 -8.626953,-11.26953 2.316406,-9.4043 5.753906,-1.50781 4.544922,-6.43945 0.646484,-4.95508 -1.408203,-1.24414 -3.759765,0.26953 z"
       id="Territory_35"
       inkscape:label="Blight Of The Cliff" /><path
       style="display:inline;fill:#ffffff;fill-opacity:1;stroke:none;stroke-linecap:square"
       d="m 216.1339,109.27539 -0.0215,0.85742 -6.81445,14.2168 -3.95703,0.24609 -1.49805,6.73047 -6.71484,3.61524 -1.16602,2.49609 -4.15039,1.66016 -3.24609,9.97656 -13.41602,21.4668 1.71289,4.2871 -2.06054,4.91211 0.36914,6.0586 -2.99805,6.21094 2.7168,8.15429 2.95312,13.08594 2.875,2.73828 -1.57031,7.06836 42.47656,34.73828 -9.62695,9.03125 -86.50781,-34.70703 0.0547,-1.24609 6.70899,-0.20508 1.25586,-11.32031 8.61914,-19.27539 -3.9961,-2.78125 0.81836,-5.04688 -3.77929,-2.4707 0.3125,-4.79102 -5.95703,-8.58594 -0.29102,-4.76367 9.23828,-9.95898 9.26563,-24.83594 8.57421,-10.54492 10.14258,-5.68164 4.63282,-6.39844 9.27148,3.19727 21.66992,0.3125 9.19336,-8.24805 z"
       id="Territory_36"
       inkscape:label="Plastic Basin"
       sodipodi:nodetypes="cccccccccccccccccccccccccccccccccccccccccccc" /><path
       id="Territory_37"
       style="display:inline;fill:#646464;fill-opacity:1;stroke:none;stroke-linecap:square"
       inkscape:label="Arakeen"
       d="m 351.48351,105.51758 10.49414,2.98047 10.40429,12.32031 -0.0957,7.41992 -20.47656,33.77149 -5.7832,-1.10743 -5.36914,1.08789 -3.45704,-7.71875 -11.89062,-8.71484 -0.32813,-5.77344 5.57813,-5.4082 8.13672,-16.7832 -2.08985,-11.08399 0.125,-0.14453 z"
       sodipodi:nodetypes="ccccccccccccccc" /><path
       style="display:inline;fill:#2c3233;fill-opacity:1;stroke:none;stroke-linecap:square"
       d="m 315.62999,89.636885 -13.73437,15.525385 -6.68946,15.64063 -5.23242,5.95312 3.83594,8.12696 -1.05469,18.30469 -8.83789,20.16602 h 0.0215 l -5.63867,22.96289 2.51563,9.00195 -1.31641,17.77734 3.17774,3.04102 -1.73633,4.05273 -0.13086,17.19727 2.45703,3.13867 -4.00781,17.00195 4.74023,4.97657 h 6.91016 l 2.57812,-2.04493 -0.11914,-4.49804 10.00977,-8.38672 4.35491,-8.80544 15.62363,-15.82347 -1.83203,-4.1875 12.35742,-17.4375 2.84375,-0.97851 9.2461,-23.75586 -2.85156,-2.34375 3.37695,-3.23047 -0.7832,-5.08594 6.30078,-10.39062 -5.96875,-1.14258 -7.39258,1.49804 -4.20703,-9.39257 -12.46289,-9.13282 -0.50782,-8.95313 6.26758,-6.07421 7.38086,-15.22266 -2.1875,-11.60352 1.65235,-1.89648 -4.76368,-6.789062 -6.16211,-0.13086 z"
       id="Territory_38"
       inkscape:label="Imperial Basin"
       sodipodi:nodetypes="ccccccccccccccccccccccccccccccccccccccccccc" /><path
       style="display:inline;fill:#2c3233;fill-opacity:1;stroke:none;stroke-linecap:square"
       d="m 249.84484,146.08806 -14.5,7.39258 -4.73243,-3.66992 -13.09375,2.00195 -17.0664,12.51953 -5.52539,10.38672 -8.50391,2.63281 -2.90039,-1.79687 -2.2168,5.28906 0.37891,6.23828 -2.59375,5.37109 1.99219,5.97852 2.59961,11.50977 4.09179,3.89648 -1.5,6.75 44.4043,36.3125 -0.0273,0.97852 18.04296,15.54687 10.67969,-0.49609 -8.13281,-15.31446 1.74414,-11.00585 -1.76562,-6.04883 -4.21485,-3.80664 v -15.54883 l 2.15625,-18.73633 7.39844,-10.83398 -3.83008,-21.95508 -1.23437,-2.12696 -1.22071,-21.01563 z"
       id="Territory_39"
       inkscape:label="Hagga Basin" /><path
       id="Territory_40"
       style="display:inline;fill:#646464;fill-opacity:1;stroke:none;stroke-linecap:square"
       inkscape:label="Carthag"
       d="m 274.09679,127.47266 13.45898,2.17968 2.78711,5.9043 -0.96875,16.81836 -8.32812,19.00781 -12.16602,0.11914 -4.45508,1.86328 -4.63672,-5.08789 -4.91406,-1.72461 -0.01,-0.0156 -1.2461,-21.45703 -1.56054,-1.63086 -1.53516,-8.50391 15.00781,-3.27929 z"
       sodipodi:nodetypes="ccccccccccccccc" /><path
       style="display:inline;fill:#2c3233;fill-opacity:1;stroke:none;stroke-linecap:square;stroke-opacity:1"
       d="m 301.76671,86.310713 -5.99805,0.326172 -0.16015,0.04492 -8.05664,2.208984 -4.22266,4.767578 -19.04492,-1.349609 -22.23633,4.367187 -19.35938,7.193355 -0.33007,13.43946 -2.35743,-0.42774 -6.54101,13.64258 -2.89844,0.18164 -1.08594,4.88477 -7.42773,3.99804 -1.33789,2.86914 -3.7207,1.48829 -2.5625,7.86914 -12.10547,19.36719 1.03906,2.59766 3.25977,2.01953 7.32617,-2.26563 5.40234,-10.15625 17.60938,-12.91992 14.04296,-2.14454 4.50196,3.49024 13.35351,-6.8086 -2.28906,-12.6875 17.83008,-3.89648 9.17187,-4.49023 14.88282,2.41015 5.53515,-6.29687 6.68946,-15.64258 13.7539,-15.546876 z"
       id="Territory_41"
       inkscape:label="Tsimpo" /></g></svg>
