<?xml version="1.0" encoding="UTF-8" standalone="no"?>
<!-- Created with Inkscape (http://www.inkscape.org/) -->

<svg
   sodipodi:docname="Arrakis_Dune_Boardgame_Heightmap.svg"
   xml:space="preserve"
   id="svg5"
   version="1.1"
   viewBox="0 0 550 575"
   height="575"
   width="550"
   inkscape:version="1.2.2 (732a01da63, 2022-12-09)"
   inkscape:export-filename="Arrakis_Dune_Boardgame_Heightmap.png"
   inkscape:export-xdpi="96"
   inkscape:export-ydpi="96"
   xmlns:inkscape="http://www.inkscape.org/namespaces/inkscape"
   xmlns:sodipodi="http://sodipodi.sourceforge.net/DTD/sodipodi-0.dtd"
   xmlns="http://www.w3.org/2000/svg"
   xmlns:svg="http://www.w3.org/2000/svg"><sodipodi:namedview
     id="namedview7"
     pagecolor="#f0f0f0"
     bordercolor="#000000"
     borderopacity="0.25"
     inkscape:showpageshadow="2"
     inkscape:pageopacity="0"
     inkscape:pagecheckerboard="0"
     inkscape:deskcolor="#0d0d0d"
     inkscape:document-units="px"
     showgrid="false"
     inkscape:zoom="1.8761364"
     inkscape:cx="307.54694"
     inkscape:cy="300.6178"
     inkscape:window-width="2560"
     inkscape:window-height="1377"
     inkscape:window-x="2552"
     inkscape:window-y="-8"
     inkscape:window-maximized="1"
     inkscape:current-layer="g3085" /><defs
     id="defs2"><inkscape:path-effect
       effect="offset"
       id="path-effect11521"
       is_visible="true"
       lpeversion="1.2"
       linejoin_type="miter"
       unit="px"
       offset="2"
       miter_limit="4"
       attempt_force_join="false"
       update_on_knot_move="true" /><inkscape:path-effect
       effect="offset"
       id="path-effect28428"
       is_visible="true"
       lpeversion="1.2"
       linejoin_type="miter"
       unit="px"
       offset="-3.5"
       miter_limit="4"
       attempt_force_join="false"
       update_on_knot_move="true" /><inkscape:path-effect
       effect="offset"
       id="path-effect28426"
       is_visible="true"
       lpeversion="1.2"
       linejoin_type="miter"
       unit="px"
       offset="-1.5"
       miter_limit="4"
       attempt_force_join="false"
       update_on_knot_move="true" /><inkscape:path-effect
       effect="offset"
       id="path-effect57162"
       is_visible="true"
       lpeversion="1.2"
       linejoin_type="miter"
       unit="px"
       offset="-3"
       miter_limit="4"
       attempt_force_join="false"
       update_on_knot_move="true" /><inkscape:path-effect
       effect="offset"
       id="path-effect43151"
       is_visible="true"
       lpeversion="1.2"
       linejoin_type="miter"
       unit="px"
       offset="-10"
       miter_limit="4"
       attempt_force_join="false"
       update_on_knot_move="true" /><inkscape:path-effect
       effect="offset"
       id="path-effect31343"
       is_visible="true"
       lpeversion="1.2"
       linejoin_type="miter"
       unit="px"
       offset="-2"
       miter_limit="4"
       attempt_force_join="false"
       update_on_knot_move="true" /><inkscape:path-effect
       effect="offset"
       id="path-effect30787"
       is_visible="true"
       lpeversion="1.2"
       linejoin_type="miter"
       unit="px"
       offset="-2"
       miter_limit="4"
       attempt_force_join="false"
       update_on_knot_move="true" /><inkscape:path-effect
       effect="offset"
       id="path-effect30507"
       is_visible="true"
       lpeversion="1.2"
       linejoin_type="miter"
       unit="px"
       offset="-2"
       miter_limit="4"
       attempt_force_join="false"
       update_on_knot_move="true" /><inkscape:path-effect
       effect="offset"
       id="path-effect29148"
       is_visible="true"
       lpeversion="1.2"
       linejoin_type="miter"
       unit="px"
       offset="-2"
       miter_limit="4"
       attempt_force_join="false"
       update_on_knot_move="true" /><inkscape:path-effect
       effect="offset"
       id="path-effect28523"
       is_visible="true"
       lpeversion="1.2"
       linejoin_type="miter"
       unit="px"
       offset="-2"
       miter_limit="4"
       attempt_force_join="false"
       update_on_knot_move="true" /><inkscape:path-effect
       effect="offset"
       id="path-effect28519"
       is_visible="true"
       lpeversion="1.2"
       linejoin_type="miter"
       unit="px"
       offset="-2"
       miter_limit="4"
       attempt_force_join="false"
       update_on_knot_move="true" /><inkscape:path-effect
       effect="offset"
       id="path-effect27780"
       is_visible="true"
       lpeversion="1.2"
       linejoin_type="miter"
       unit="px"
       offset="3"
       miter_limit="4"
       attempt_force_join="false"
       update_on_knot_move="true" /><inkscape:path-effect
       effect="offset"
       id="path-effect26055"
       is_visible="true"
       lpeversion="1.2"
       linejoin_type="miter"
       unit="px"
       offset="-7"
       miter_limit="4"
       attempt_force_join="false"
       update_on_knot_move="true" /><inkscape:path-effect
       effect="offset"
       id="path-effect26053"
       is_visible="true"
       lpeversion="1.2"
       linejoin_type="miter"
       unit="px"
       offset="10"
       miter_limit="4"
       attempt_force_join="false"
       update_on_knot_move="true" /><inkscape:path-effect
       effect="offset"
       id="path-effect26048"
       is_visible="true"
       lpeversion="1.2"
       linejoin_type="miter"
       unit="px"
       offset="-2"
       miter_limit="4"
       attempt_force_join="false"
       update_on_knot_move="true" /><inkscape:path-effect
       effect="offset"
       id="path-effect26044"
       is_visible="true"
       lpeversion="1.2"
       linejoin_type="miter"
       unit="px"
       offset="-2"
       miter_limit="4"
       attempt_force_join="false"
       update_on_knot_move="true" /><inkscape:path-effect
       effect="offset"
       id="path-effect26040"
       is_visible="true"
       lpeversion="1.2"
       linejoin_type="miter"
       unit="px"
       offset="-2"
       miter_limit="4"
       attempt_force_join="false"
       update_on_knot_move="true" /><inkscape:path-effect
       effect="offset"
       id="path-effect26036"
       is_visible="true"
       lpeversion="1.2"
       linejoin_type="miter"
       unit="px"
       offset="-2"
       miter_limit="4"
       attempt_force_join="false"
       update_on_knot_move="true" /><inkscape:path-effect
       effect="offset"
       id="path-effect26032"
       is_visible="true"
       lpeversion="1.2"
       linejoin_type="miter"
       unit="px"
       offset="-2"
       miter_limit="4"
       attempt_force_join="false"
       update_on_knot_move="true" /><inkscape:path-effect
       effect="offset"
       id="path-effect26028"
       is_visible="true"
       lpeversion="1.2"
       linejoin_type="miter"
       unit="px"
       offset="-2"
       miter_limit="4"
       attempt_force_join="false"
       update_on_knot_move="true" /><inkscape:path-effect
       effect="offset"
       id="path-effect26024"
       is_visible="true"
       lpeversion="1.2"
       linejoin_type="miter"
       unit="px"
       offset="-2"
       miter_limit="4"
       attempt_force_join="false"
       update_on_knot_move="true" /><inkscape:path-effect
       effect="offset"
       id="path-effect26020"
       is_visible="true"
       lpeversion="1.2"
       linejoin_type="miter"
       unit="px"
       offset="-2"
       miter_limit="4"
       attempt_force_join="false"
       update_on_knot_move="true" /><inkscape:path-effect
       effect="offset"
       id="path-effect26016"
       is_visible="true"
       lpeversion="1.2"
       linejoin_type="miter"
       unit="px"
       offset="-2"
       miter_limit="4"
       attempt_force_join="false"
       update_on_knot_move="true" /><inkscape:path-effect
       effect="offset"
       id="path-effect26012"
       is_visible="true"
       lpeversion="1.2"
       linejoin_type="miter"
       unit="px"
       offset="-2"
       miter_limit="4"
       attempt_force_join="false"
       update_on_knot_move="true" /><inkscape:path-effect
       effect="offset"
       id="path-effect26008"
       is_visible="true"
       lpeversion="1.2"
       linejoin_type="miter"
       unit="px"
       offset="-2"
       miter_limit="4"
       attempt_force_join="false"
       update_on_knot_move="true" /><inkscape:path-effect
       effect="offset"
       id="path-effect26004"
       is_visible="true"
       lpeversion="1.2"
       linejoin_type="miter"
       unit="px"
       offset="-2"
       miter_limit="4"
       attempt_force_join="false"
       update_on_knot_move="true" /><inkscape:path-effect
       effect="offset"
       id="path-effect25915"
       is_visible="true"
       lpeversion="1.2"
       linejoin_type="miter"
       unit="px"
       offset="-2.4"
       miter_limit="4"
       attempt_force_join="false"
       update_on_knot_move="true" /><inkscape:path-effect
       effect="offset"
       id="path-effect25470"
       is_visible="true"
       lpeversion="1.2"
       linejoin_type="miter"
       unit="px"
       offset="-2"
       miter_limit="4"
       attempt_force_join="false"
       update_on_knot_move="true" /><inkscape:path-effect
       effect="offset"
       id="path-effect25258"
       is_visible="true"
       lpeversion="1.2"
       linejoin_type="miter"
       unit="px"
       offset="0"
       miter_limit="4"
       attempt_force_join="false"
       update_on_knot_move="true" /><inkscape:path-effect
       effect="offset"
       id="path-effect25256"
       is_visible="true"
       lpeversion="1.2"
       linejoin_type="miter"
       unit="px"
       offset="-2"
       miter_limit="4"
       attempt_force_join="false"
       update_on_knot_move="true" /><inkscape:path-effect
       effect="offset"
       id="path-effect24972"
       is_visible="true"
       lpeversion="1.2"
       linejoin_type="miter"
       unit="px"
       offset="-2"
       miter_limit="4"
       attempt_force_join="false"
       update_on_knot_move="true" /><inkscape:path-effect
       effect="offset"
       id="path-effect24903"
       is_visible="true"
       lpeversion="1.2"
       linejoin_type="miter"
       unit="px"
       offset="-2"
       miter_limit="4"
       attempt_force_join="false"
       update_on_knot_move="true" /><inkscape:path-effect
       effect="offset"
       id="path-effect24021"
       is_visible="true"
       lpeversion="1.2"
       linejoin_type="miter"
       unit="px"
       offset="-2"
       miter_limit="4"
       attempt_force_join="false"
       update_on_knot_move="true" /><inkscape:path-effect
       effect="offset"
       id="path-effect24019"
       is_visible="true"
       lpeversion="1.2"
       linejoin_type="miter"
       unit="px"
       offset="-2"
       miter_limit="4"
       attempt_force_join="false"
       update_on_knot_move="true" /><inkscape:path-effect
       effect="offset"
       id="path-effect23116"
       is_visible="true"
       lpeversion="1.2"
       linejoin_type="miter"
       unit="px"
       offset="-2"
       miter_limit="4"
       attempt_force_join="false"
       update_on_knot_move="true" /><inkscape:path-effect
       effect="offset"
       id="path-effect22991"
       is_visible="true"
       lpeversion="1.2"
       linejoin_type="miter"
       unit="px"
       offset="-2"
       miter_limit="4"
       attempt_force_join="false"
       update_on_knot_move="true" /><inkscape:path-effect
       effect="offset"
       id="path-effect22989"
       is_visible="true"
       lpeversion="1.2"
       linejoin_type="miter"
       unit="mm"
       offset="0"
       miter_limit="4"
       attempt_force_join="false"
       update_on_knot_move="true" /><inkscape:path-effect
       effect="offset"
       id="path-effect22984"
       is_visible="true"
       lpeversion="1.2"
       linejoin_type="miter"
       unit="px"
       offset="-5"
       miter_limit="4"
       attempt_force_join="false"
       update_on_knot_move="true" /><inkscape:path-effect
       effect="offset"
       id="path-effect22982"
       is_visible="true"
       lpeversion="1.2"
       linejoin_type="miter"
       unit="px"
       offset="-5"
       miter_limit="4"
       attempt_force_join="false"
       update_on_knot_move="true" /><inkscape:path-effect
       effect="offset"
       id="path-effect22980"
       is_visible="true"
       lpeversion="1.2"
       linejoin_type="miter"
       unit="px"
       offset="-5"
       miter_limit="4"
       attempt_force_join="false"
       update_on_knot_move="true" /><inkscape:path-effect
       effect="offset"
       id="path-effect22978"
       is_visible="true"
       lpeversion="1.2"
       linejoin_type="miter"
       unit="px"
       offset="-5"
       miter_limit="4"
       attempt_force_join="false"
       update_on_knot_move="true" /><inkscape:path-effect
       effect="offset"
       id="path-effect22963"
       is_visible="true"
       lpeversion="1.2"
       linejoin_type="miter"
       unit="px"
       offset="-2"
       miter_limit="4"
       attempt_force_join="false"
       update_on_knot_move="true" /><inkscape:path-effect
       effect="offset"
       id="path-effect22957"
       is_visible="true"
       lpeversion="1.2"
       linejoin_type="miter"
       unit="px"
       offset="-5"
       miter_limit="4"
       attempt_force_join="false"
       update_on_knot_move="true" /><inkscape:path-effect
       effect="offset"
       id="path-effect22955"
       is_visible="true"
       lpeversion="1.2"
       linejoin_type="miter"
       unit="px"
       offset="-5"
       miter_limit="4"
       attempt_force_join="false"
       update_on_knot_move="true" /></defs><rect
     style="fill:#000000;fill-opacity:1;stroke:none;stroke-width:0.999994;stroke-linecap:square"
     id="rect8323"
     width="550"
     height="575"
     x="0"
     y="0" /><path
     id="path57158"
     style="display:inline;fill:#0f0f0f;fill-opacity:1;stroke:none;stroke-linecap:square"
     inkscape:label="Board"
     d="m 275.30469,51.794922 h 0.11133 l 0.0664,0.002 c 4.27718,0.0649 8.55698,0.263463 12.8457,0.548828 l 3.45899,0.228516 -0.008,-0.103516 8.3164,0.839844 c 0.89168,0.09007 1.8242,0.260336 2.85938,0.376953 l 0.006,0.002 1.60156,0.173828 0.004,0.04297 2.35547,0.302734 c 34.96737,4.505089 68.55551,16.320029 98.63671,34.6875 l 2.44532,1.494141 0.043,-0.06445 2.16796,1.433594 0.0176,0.01172 c 0.87166,0.558784 1.69757,1.013013 2.44141,1.501954 l 5.92578,3.894531 -0.16992,0.251953 2.38867,1.699219 c 4.81891,3.428199 9.50905,7.018449 14.07226,10.777339 l 2.00977,1.6543 0.0723,-0.0664 1.75,1.53906 0.0137,0.0117 c 0.69358,0.59475 1.3536,1.07199 1.91211,1.56054 l 8.28906,7.25196 c 2.78059,3.33052 6.39253,7.33358 9.67383,9.94336 l 4.54883,5.24804 0.0137,0.0156 c 0.45893,0.51475 0.88978,0.92286 1.23047,1.31054 l 4.51953,5.14258 -0.20899,0.19336 1.77539,2.18945 c 11.72284,14.44616 22.46451,29.63685 29.98829,46.40626 l 6.21093,13.8457 2.72852,6.69336 5.30273,15.47851 c 7.18394,23.00945 10.98219,46.93688 11.33985,71.04102 l 0.002,0.0586 0.10742,2 c 0.0159,0.29271 0.0315,0.58501 0.0469,0.88672 l 0.01,0.18164 v 0.16602 c -9e-5,0.66673 -0.0626,1.38989 -0.0703,2.21484 v 0.0293 l 0.0332,2.89648 -0.11718,-0.008 -0.10157,3.08203 C 523.36897,389.9405 483.63026,463.2541 418.50586,508.52344 l -1.20703,0.83984 -0.008,0.15039 -2.94532,1.96094 c -0.0615,0.0409 -0.17899,0.10893 -0.34765,0.2207 l -0.0117,0.008 -9.72071,6.57032 0.0215,-0.45508 -4.75,2.70508 c -18.76735,10.68498 -38.83607,18.9067 -59.73633,24.45508 l -2.40039,0.63867 0.002,0.0293 -1.62109,0.375 -0.0215,0.006 c -0.96435,0.2389 -1.85373,0.50162 -2.72461,0.70704 l -8.01954,1.89257 -0.0176,-0.25586 -3.32813,0.63282 c -15.26508,2.90163 -30.74808,4.46017 -46.27344,4.49414 h -0.0254 -0.0176 c -7.41588,-0.0225 -14.83786,-0.49277 -22.28125,-1.17969 l -3.0293,-0.28125 -0.0254,0.31641 -7.35352,-1.00196 c -0.75602,-0.1029 -1.55108,-0.27083 -2.4375,-0.40039 l -0.0254,-0.004 -2.65429,-0.33985 0.008,-0.0859 -2.71485,-0.45703 c -30.89139,-5.20435 -60.50926,-16.13444 -87.36718,-32.25 l -2.53711,-1.52343 -0.0742,0.11914 -4.32617,-2.82422 -0.006,-0.004 c -0.21311,-0.13747 -0.36807,-0.2203 -0.45313,-0.27539 l -5.76367,-3.73633 0.16211,-0.26172 -2.32617,-1.63086 C 88.815145,477.31353 56.256675,434.09549 39.015625,384.07812 l -0.966797,-2.80664 -0.298828,0.0996 -2.09375,-6.87695 c 0,0 0.0071,-0.0437 -0.111328,-0.43555 v -0.006 l -1.445313,-4.71875 0.248047,-0.082 -0.736328,-2.73633 c -2.223969,-8.27573 -4.004571,-16.64927 -5.371094,-25.11523 l -0.548828,-3.41016 -0.339844,0.10547 -1.013671,-8.32812 c -0.0751,-0.61741 -0.107719,-1.29693 -0.19336,-2.05274 v -0.01 l -0.279297,-2.33594 0.05664,-0.0176 -0.226563,-2.41015 c -0.633751,-6.74304 -1.083944,-13.46642 -1.171874,-20.1875 v -0.0156 l -0.002,-0.17578 0.0059,-0.16406 c 0.03887,-1.09636 0.149677,-2.22371 0.208984,-3.42969 l 0.150391,-3.04297 h -0.0078 l 0.478516,-7.2832 c 0.02678,-0.40755 0.11662,-0.91621 0.164062,-1.53516 l 0.002,-0.0215 0.318359,-3.73438 0.109375,0.004 0.273437,-2.7832 c 0.918018,-9.33949 2.308588,-18.60527 4.261719,-27.76563 l 0.398438,-1.86523 -0.195313,-0.14844 1.091797,-4.42383 0.01172,-0.0469 2.083984,-8.90625 0.03711,0.0273 3.8125,-11.62109 c 0.155738,-0.4746 0.395169,-1.01119 0.619141,-1.67774 l 0.890625,-2.67383 0.107422,0.0195 0.853516,-2.37304 C 46.728559,200.97612 55.31585,183.67096 65.816406,167.5 l 1.316406,-2.02734 -0.144531,-0.14649 3.285157,-4.77929 c 0.147081,-0.21399 0.357375,-0.47199 0.601562,-0.82422 l 3.398438,-4.93555 0.08984,0.0898 2.074219,-2.76562 C 95.887982,126.19642 120.17201,104.32015 147.9668,87.638632 l 2.49804,-1.498047 -0.0703,-0.125 3.9707,-2.173828 0.0137,-0.0078 c 0.38313,-0.214714 0.67397,-0.41063 0.91601,-0.544922 l 6.09961,-3.384765 0.11914,0.210937 2.5586,-1.292968 c 34.4938,-17.41579 72.52867,-26.752791 111.23239,-27.027317 z"
     sodipodi:nodetypes="ccccccccccccccccccccccccccscccccccccccccccccccccccccccccscscccccccccccccccsccccsccsccscccccccccccccccccccccc" /><path
     id="path25918"
     style="display:inline;fill:#2c3233;fill-opacity:1;stroke:none;stroke-linecap:square"
     inkscape:label="Board"
     d="m 39.501472,373.38629 0.879387,2.89105 0.158203,-0.0527 2.257813,6.55078 c 16.96571,49.21858 49.007461,91.74785 91.648435,121.62695 l 5.42774,3.80274 -0.0899,0.14453 2.46875,1.59961 c -0.002,-0.001 0.002,-0.0146 0.44532,0.27148 l 0.0156,0.01 1.19727,0.78125 5.62109,3.37305 c 26.42929,15.85836 55.57353,26.61491 85.97266,31.73632 l 4.75,0.80079 0.49218,0.0625 0.0586,0.01 c 0.96789,0.14147 1.73692,0.30449 2.39843,0.39453 l 3.15821,0.42969 0.0117,-0.13672 7.0664,0.65234 c 7.36301,0.6795 14.65177,1.14121 21.9043,1.16407 h 0.0215 0.006 0.01 c 15.27028,-0.0334 30.50711,-1.56577 45.54297,-4.42383 l 7.76367,-1.47656 0.004,0.0527 3.42578,-0.80859 c 0.79937,-0.18854 1.65827,-0.44423 2.67969,-0.69727 l 0.0508,-0.0117 0.68359,-0.1582 3.24219,-0.86133 c 20.56649,-5.45977 40.31687,-13.55169 58.78515,-24.0664 l 8.74414,-4.97852 5.45899,-3.68945 0.0254,-0.0195 c 0.36272,-0.24039 0.34375,-0.2168 0.34375,-0.2168 l 1.26758,-0.84375 0.006,-0.10156 2.81836,-1.95899 c 64.08465,-44.54658 103.18977,-116.69021 105.75,-194.50586 l 0.18554,-5.65234 -0.002,-0.1836 v -0.0703 c 0.009,-0.92502 0.0702,-1.62308 0.0703,-2.17773 v -0.0684 l -0.004,-0.0762 v -0.01 c -0.0146,-0.28739 -0.0312,-0.57458 -0.0469,-0.86328 l -0.11328,-2.07813 -0.002,-0.13867 c -0.35179,-23.70822 -4.0868,-47.23915 -11.14649,-69.86523 l -5.24609,-15.3125 -2.66211,-6.5293 -6.17774,-13.77344 c -7.32436,-16.32495 -17.82472,-31.2057 -29.44335,-45.52343 l -4.14454,-5.10743 0.0996,-0.0918 -1.93945,-2.20508 c -0.26114,-0.29717 -0.67817,-0.69148 -1.21094,-1.28906 l -0.0332,-0.0352 -0.25977,-0.29883 -4.35156,-4.61914 c -3.12387,-3.31568 -6.3316,-6.541 -9.63086,-9.67578 l -5.45703,-5.18555 0.0879,-0.0801 -2.53125,-2.21485 c -0.23783,-0.20804 -0.63507,-0.52618 -0.95703,-0.78125 l -0.0195,0.0195 -4.68945,-3.86328 c -4.48931,-3.69801 -9.10644,-7.23115 -13.84961,-10.60547 l -5.56836,-3.960934 0.0898,-0.13086 -2.54101,-1.669922 c -0.65638,-0.43145 -1.45698,-0.869274 -2.4043,-1.476562 l -0.043,-0.02539 -0.38477,-0.253906 -4.17382,-2.548828 C 373.87157,74.236226 340.81945,62.610919 306.41016,58.177734 l -5.49414,-0.708984 -0.002,-0.01758 c -0.39352,-0.05678 -0.87932,-0.125675 -1.2207,-0.160156 l -5.24414,-0.529297 -6.38672,-0.425781 c -4.23603,-0.281859 -8.44516,-0.475402 -12.64062,-0.539063 h -0.01 l -0.0586,-0.002 h -0.002 C 237.26651,56.06206 199.83145,65.248082 165.875,82.392578 l -5.9707,3.015625 -0.043,-0.07617 -2.625,1.455078 c -0.14474,0.0803 -0.42728,0.270878 -0.90235,0.53711 l -0.0293,0.01563 -0.75196,0.412109 -5.52734,3.316406 C 122.67264,107.48458 98.776155,129.01127 79.636719,154.51172 l -3.841797,5.12109 -1.632813,2.36914 -0.0059,0.008 c -0.298261,0.4302 -0.500763,0.67881 -0.585938,0.80273 l -1.410156,2.05078 0.08203,0.084 -3.070313,4.73046 c -10.332741,15.9124 -18.783678,32.94274 -25.210894,50.79474 L 41.96875,226.00781 41.923828,226 c -0.149989,0.39571 -0.322514,0.84294 -0.396484,1.06836 l -3.908203,11.91406 -1.9375,8.28125 -0.01563,0.0547 -0.0039,0.0195 -0.458984,1.85742 0.123047,0.0937 -0.927734,4.35156 c -1.919264,9.00152 -3.288635,18.11997 -4.19336,27.32422 l -0.638672,6.49024 -0.06055,-0.002 c -0.05698,0.70361 -0.141893,1.20295 -0.158203,1.45118 l -0.443359,6.74023 -0.171875,3.52149 c -0.06248,1.27043 -0.171097,2.36136 -0.207031,3.375 l -0.002,0.0664 v 0.0781 c 0.08562,6.58671 0.526498,13.20311 1.154296,19.88281 l 0.439454,4.67578 0.002,0.0195 0.08789,0.92774 c 0.03032,0.36871 0.06736,0.81061 0.101563,1.09179 l 0.435547,3.57422 0.162109,-0.0508 1.283203,7.95703 c 1.345497,8.3357 3.097894,16.5757 5.285156,24.71485 l 1.714844,6.38281 -0.121094,0.0391 0.302735,0.98828 0.0039,0.0117 c 0.164736,0.54494 0.142826,0.51131 0.122384,0.46261 0.0027,0.0121 0.0039,0.0194 0.0041,0.0233 z"
     sodipodi:nodetypes="ccccccccccccccccccccccccccscccccccccccccccccccccccccccccscscccccccccccccccsccccsccsccscccccccccccccccccccccccc" /><g
     id="g3085"
     inkscape:groupmode="layer"
     inkscape:label="Art"><path
       style="display:inline;fill:#ffffff;fill-opacity:1;stroke:none;stroke-linecap:square"
       d="m 421.76758,186.75391 -20.10742,16.0039 -4.14258,12.80469 -7.66992,5.92578 -6.34571,0.45508 0.94532,4.72656 -1.05469,1.8457 -8.27539,3.54493 -0.40625,15.46484 7.52929,15.43555 -1.10742,20.29492 -1.84765,9.60742 -15.54688,38.67969 3.92969,19.65234 12.4043,10.80469 8.38476,-0.38281 12.43164,8.29101 10.09571,-0.375 15.03906,12.66211 10.38281,-15.38281 8.96289,3.79102 10.99805,1.83203 4.80859,5.54883 14.39258,5.5039 9.38476,-29.72266 4.22071,-5.37109 2.36914,-17.37891 -2.93359,-4.89062 4.20312,-2.29102 -4.2793,-6.41992 1.01172,-7.41015 8.38477,-9.14844 -0.46875,-8.41406 -7.38086,-0.82032 -9.96289,-11.03125 -1.78711,-12.15039 2.42187,-8.30468 10.36524,-6.52735 v -5.82226 l 18.71093,-18.35743 -0.36718,-1.16992 c -3.46335,-11.02429 -7.70002,-21.79031 -12.67774,-32.21875 l -0.57226,-1.19922 -13.26758,0.63282 -3.29102,2.63086 -3.7539,-3.00391 -8.4043,6.49414 -6.15039,-3.61719 -15.25391,4.83594 -5.1582,-5.1582 -11.16602,1.15429 -3.75976,-1.87695 z"
       id="path22952"
       inkscape:label="Pasty Mesa" /><path
       style="display:inline;fill:#ffffff;fill-opacity:1;stroke:none;stroke-linecap:square"
       d="m 340.54688,325.3125 -7.2754,0.64453 -4.9746,18.5293 -7.13477,-0.44727 -6.19531,-4.07031 -1.09571,13.47461 -3.84961,11.6875 13.88282,27.49023 21.03125,28.26758 15.8164,16.76367 13.57227,6.11914 9.60351,10.88477 3.58399,14.3418 5.39062,7.13476 20.75,3.90625 -1.04492,-2.7832 3.80274,-0.42188 7.11914,-12.52734 1.17968,-10.60352 6.76368,-6.63671 12.67968,-7.84571 -14.92773,-8.89062 -2.52539,-9.48633 2.25195,-12.49023 -3.30273,-16.42969 1.53711,-12.11719 -15.30274,-12.88672 -10.25586,0.38086 -12.4414,-8.29492 -8.20117,0.37109 -12.92383,-11.2539 -6.8086,13.61523 h -2.98437 l -6.20508,-10.91992 -4.70898,-18.69922 z"
       id="path22966"
       inkscape:label="False Wall South" /><path
       style="display:inline;fill:#ffffff;fill-opacity:1;stroke:none;stroke-linecap:square"
       d="m 307.80469,247.29102 -4.88867,9.91796 -10.13086,8.48829 0.18164,6.92187 9.86328,0.14258 6.30469,10.06445 -1.74805,11.875 -7.625,10.51172 -4.88867,10.97656 13.99804,12.19532 15.68164,-5.66016 8.3125,-17.73242 -0.73437,-5.01563 3.14258,-1.96484 -1.67969,-22.5586 -8.67969,-13.27148 -0.0254,-0.041 -3.86133,-6.23242 z"
       id="path22968"
       inkscape:label="False Wall East"
       sodipodi:nodetypes="cccccccccccccccccc" /><path
       style="display:inline;fill:#ffffff;fill-opacity:1;stroke:none;stroke-linecap:square"
       d="m 197.4375,302.91406 -20.13477,0.89649 -2.89257,6.60742 -10.23633,3.41211 -0.39649,3.70508 -3.1582,0.96093 -0.13672,24.12305 -16.5957,15.80469 -4.75195,11.95117 4.70117,7.05078 0.23633,7.54297 -5.32618,4.52539 0.28711,12.30859 7.99219,19.58008 0.13672,14.72461 10.2168,6.27539 10.0625,0.48633 0.27734,-32.95117 10.54687,-11.07422 3.95118,-16.48828 2.84375,-14.47852 0.60156,-0.46875 7.74023,-28.99023 4.03516,-17.75391 z"
       id="path22970"
       inkscape:label="False Wall West" /><path
       style="display:inline;fill:#ffffff;fill-opacity:1;stroke:none;stroke-linecap:square"
       d="m 223.31641,101.98047 -14.89258,0.60156 -9.0293,8.10156 -17.8125,-0.25781 -10.93359,-3.76953 -1.19532,-2.12305 -7.76171,10.72461 -9.96094,5.57813 -10.15039,12.48047 -9.17774,24.61132 -10.33593,11.14063 0.59375,9.70898 5.67968,8.1875 -0.41992,6.43164 3.39453,2.21875 -0.79492,4.9043 2.85352,1.98633 -6.69922,14.98047 -0.70703,6.36914 -3.85547,0.11719 -3.45117,4.10937 -0.38282,8.68555 97.14844,38.97656 0.47656,-2.98242 16.33985,-15.33008 -45.32422,-37.06445 1.49023,-6.72266 -4.20117,-4 -2.56641,-11.36719 -1.92773,-5.7832 2.55664,-5.29687 -0.38086,-6.25391 2.54102,-6.05274 -1.46094,-3.65234 11.98633,-19.17773 2.5,-7.67969 3.67969,-1.47266 1.35546,-2.90234 7.49219,-4.0332 1.05078,-4.71875 2.80274,-0.17383 6.49609,-13.55274 2.58789,0.46875 z"
       id="path22972"
       inkscape:label="Plastic Basin"
       sodipodi:nodetypes="cccccccccccccccccccccccccccccccccccccccccccc" /><path
       style="display:inline;fill:#000000;fill-opacity:1;stroke:none;stroke-linecap:square"
       d="m 278.9043,266.31641 -6.23438,0.1582 -3.33789,2.92383 -9.57617,2.93554 -11.65625,0.54297 -12.54297,8.36133 -7.30664,12.68555 -3.36719,14.45703 5.96485,8.87305 3.74414,-0.57618 11.9375,8.75196 8.5957,-0.51172 8.11133,14.0918 17.01953,-0.28711 11.90234,-8.56641 0.26953,-8.38086 4.65235,-4.21094 4.92578,-11.05468 7.83594,-10.80665 1.98047,-13.44335 -7.55274,-12.05665 -11.1875,-0.1582 -2.37109,1.88086 h -6.46485 z"
       id="path22986"
       inkscape:label="Polar Sink" /><path
       id="path22993"
       style="display:inline;fill:#ffffff;fill-opacity:1;stroke:none;stroke-linecap:square"
       inkscape:label="Tuek's Sietch"
       d="m 435.45898,363.60938 -10.85742,16.08789 -1.5625,12.32226 3.28906,16.35938 -2.26757,12.57226 2.9414,11.05469 14.66211,8.73242 22.53906,-18.51367 8.92188,-16.74609 0.40625,-11.12305 2.65625,-13.39258 -13.49023,-5.1582 -4.98829,-5.75781 -11.61523,-1.93555 z"
       sodipodi:nodetypes="ccccccccccccccc" /><path
       id="path23362"
       style="display:inline;fill:#ffffff;fill-opacity:1;stroke:none;stroke-linecap:square"
       inkscape:label="Habbanya Sietch"
       d="m 104.4707,369.95312 -16.517575,4.47852 -7.923828,11.52539 6.214844,25.67578 18.769529,19.90039 25.41797,-20.27734 -9.74219,-22.36914 0.13086,-6.84961 -2.53125,-8.3418 z"
       sodipodi:nodetypes="cccccccccc" /><path
       id="path23671"
       style="display:inline;fill:#ffffff;fill-opacity:1;stroke:none;stroke-linecap:square"
       inkscape:label="Sietch Tabr"
       d="m 114.88477,163.75977 -21.644536,16.05468 -0.664062,5.09961 -4.345703,6.15625 -5.882813,1.54102 -2.46289,10.0039 8.923828,11.65821 6.935547,1.54297 5.341799,-2.99805 11.89258,5.04297 6.78906,0.27148 8.64258,1.78516 8.1875,-18.30859 -3.27539,-2.2793 0.80273,-4.95508 -3.5332,-2.3125 0.3789,-5.82617 -5.77929,-8.33789 -0.54883,-8.94532 z"
       sodipodi:nodetypes="cccccccccccccccccccc" /><path
       id="path25115"
       style="display:inline;fill:#ffffff;fill-opacity:1;stroke:none;stroke-linecap:square"
       inkscape:label="Arakeen"
       d="m 351.93164,101.48633 -17.10937,0.98047 -2.50391,2.87695 2.20312,11.69141 -7.25195,14.95898 -6.38476,6.18945 0.53906,9.48438 12.56055,9.20508 4.33203,9.67383 7.73242,-1.56641 7.74219,1.48242 22.48046,-37.08203 0.13086,-10.00391 -12.15625,-14.39453 z"
       sodipodi:nodetypes="ccccccccccccccc" /><path
       id="path25260"
       style="display:inline;fill:#ffffff;fill-opacity:1;stroke:none;stroke-linecap:square"
       inkscape:label="Carthag"
       d="m 273.48047,123.32031 -9.27735,4.54297 -18.30078,3.99805 2.4336,13.48242 1.37695,1.43945 1.21484,20.93946 1.22657,2.11523 5.35547,1.87891 5.85742,6.42773 6.33593,-2.65039 13.96876,-0.13867 9.65429,-22.0293 1.06836,-18.55664 -4.11914,-8.73047 z"
       sodipodi:nodetypes="ccccccccccccccc" /><path
       style="display:inline;fill:#ffffff;fill-opacity:1;stroke:none;stroke-linecap:square;stroke-opacity:1"
       d="m 426.25195,156.51367 -16.68945,1.57617 -12.52344,15.48438 -0.38672,4.88476 -15.84375,11.91602 h -5.38086 l -32.64648,18.92188 h -4.78906 l -4.47266,1.53906 -12.65234,17.85351 1.80469,4.12696 -16.49219,16.49218 12.96875,8.45118 4.49414,6.74023 13.875,-6.27734 2.11328,-3.83008 12.69922,-4.9043 7.74414,1.16797 3.0664,-7.80664 3.99219,-1.03125 2.6875,-4.30274 7.79883,-2.5625 0.0312,-1.17382 7.55273,-3.23633 1.96094,-3.43164 -0.5625,-2.81055 4.20508,-0.29883 8.91797,-6.88672 4.14648,-12.82617 17.875,-14.22461 9.09375,-5.62695 10.88672,-18.74023 -0.53906,-5.19141 z"
       id="path28516"
       inkscape:label="Shield Wall"
       sodipodi:nodetypes="cccccccccccccccccccccccccccccccccc" /><path
       style="display:inline;fill:#ffffff;fill-opacity:1;stroke:none;stroke-linecap:square"
       d="m 381.34766,122.9707 -4.23438,5.08203 -2.79687,-0.41992 -29.20508,48.17383 0.77148,4.99805 -3.63086,3.4707 4.23828,3.48242 13.73829,-8.49023 -0.39063,-3.26172 7.06641,-3.66406 0.11132,-2.79297 2.98047,0.11523 5.95899,-11.02344 3.99609,-8.19335 1.6875,-9.87305 4.75,-4.88477 v -9.75195 z"
       id="path27800"
       inkscape:label="Rim Wall West"
       sodipodi:nodetypes="cccccccccccccccccc" /></g><g
     id="g3171"
     inkscape:groupmode="layer"
     inkscape:label="Territories"
     style="display:inline"><path
       style="display:inline;fill:#2c3233;fill-opacity:1;stroke:none;stroke-linecap:square"
       d="m 460.02648,144.10954 -19.28125,17.72071 0.38671,3.74023 -10.74804,18.5 -8.21337,4.99296 3.3872,8.28829 4.09961,2.05078 11.06054,-1.14453 5.21094,5.21094 15.3418,-4.86523 6.26562,3.68554 8.35352,-6.45508 3.76172,3.00977 3.50586,-2.80469 11.09765,-0.52734 c -9.185,-18.51546 -20.68672,-35.78805 -34.22851,-51.40235 z"
       id="Territory_2"
       inkscape:label="Gara Kulon"
       sodipodi:nodetypes="cccccccccccccccc" /><path
       style="display:inline;fill:#2c3233;fill-opacity:1;stroke:none;stroke-linecap:square"
       d="m 437.04601,120.87321 -17.66407,16.06836 -4.38086,8.11524 0.40626,9.08085 -3.51976,4.31137 14.31468,-1.3512 13.62695,3.64257 19.31641,-17.75391 c -6.88596,-7.83621 -14.26766,-15.22248 -22.09961,-22.11328 z"
       id="Territory_3"
       inkscape:label="Sihaya Ridge"
       sodipodi:nodetypes="ccccccccc" /><path
       style="display:inline;fill:#2c3233;fill-opacity:1;stroke:none;stroke-linecap:square"
       d="m 409.96202,99.984541 -14.24414,21.066409 -9.90625,5.34375 v 9.05859 l -4.71094,4.8457 -1.71875,9.86757 -2.98069,6.19895 4.21312,0.0702 7.4414,-5.31641 8.92188,-0.39844 8.66406,-6.39844 8.29687,-0.28906 4.30665,-7.98047 17.79296,-16.1875 c -8.23615,-7.20451 -16.94789,-13.84647 -26.07617,-19.880849 z"
       id="Territory_4"
       inkscape:label="Basin"
       sodipodi:nodetypes="ccccccccccccccc" /><path
       style="display:inline;fill:#2c3233;fill-opacity:1;stroke:none;stroke-linecap:square"
       d="m 413.59679,145.46892 -7.46485,0.25976 -8.6582,6.39454 -8.93359,0.40039 -7.48242,5.34375 -5.28125,-0.10742 -6.11914,11.3125 -3.19727,-0.12305 -0.12109,3.03516 -7.125,3.69335 0.39648,3.29297 -12.04492,7.44336 -9.13086,23.46094 h 4.5 l 32.64648,-18.92188 h 5.41602 l 16.21094,-12.1914 0.39257,-4.96289 11.00586,-13.60938 5.35157,-6.39062 z"
       id="Territory_5"
       inkscape:label="Hole In the Wall"
       sodipodi:nodetypes="ccccccccccccccccccccc" /><path
       style="display:inline;fill:#2c3233;fill-opacity:1;stroke:none;stroke-linecap:square"
       d="m 375.61632,235.00603 -6.17383,2.02734 -2.67773,4.28516 -4.05469,1.04687 -3.00586,7.65235 -7.4375,-1.12305 -13.04102,5.03516 -2.12109,3.8457 -11.9778,5.43727 7.90163,12.43187 1.64453,22.06445 -3.16797,1.98047 0.76172,5.21485 -7.79297,16.625 9.73047,4.92578 6.125,-0.54492 6.50391,6.5039 4.6875,18.61914 6.41015,11.28125 h 3.67578 l 6.33789,-12.67383 -3.60742,-18.04101 15.50586,-38.57617 1.86133,-9.68555 1.11914,-20.49609 -7.5332,-15.44336 z"
       id="Territory_6"
       inkscape:label="The Minor Erg"
       sodipodi:nodetypes="ccccccccccccccccccccccccccc" /><path
       style="display:inline;fill:#2c3233;fill-opacity:1;stroke:none;stroke-linecap:square"
       d="m 508.03234,230.38103 -17.49219,17.16016 v 5.74804 l -10.28125,6.47266 -2.51953,8.63672 1.83203,12.44922 10.22656,11.32226 7.11328,0.79102 0.33984,6.11133 21.85352,1.29101 a 243.8512,243.8512 0 0 0 -11.07226,-69.98242 z"
       id="Territory_8"
       inkscape:label="Red Chasm" /><path
       style="display:inline;fill:#2c3233;fill-opacity:1;stroke:none;stroke-linecap:square"
       d="m 497.33116,300.50212 0.008,0.14258 -8.34375,9.10352 -1.06446,7.80468 4.05078,6.07618 -4.17773,2.27734 3.14062,5.23242 -2.32226,17.02344 -4.18555,5.32617 -9.11328,28.85742 -2.36719,11.94532 -0.40429,11.0332 -8.80469,16.52734 -22.5332,18.50782 -10.09961,6.24804 -6.95899,6.82813 -1.1875,10.6875 -6.91406,12.16992 -4.25,0.4707 1.33008,3.54688 -1.19336,24.32422 a 243.8512,243.8512 0 0 0 107.28515,-201.98829 243.8512,243.8512 0 0 0 -0.0449,-0.85351 z"
       id="Territory_9"
       inkscape:label="South Mesa" /><path
       style="display:inline;fill:#2c3233;fill-opacity:1;stroke:none;stroke-linecap:square"
       d="m 324.96202,393.08025 -4.79492,16.44531 -6.91797,6.26367 2.82813,15.16992 14.02148,18.73829 -5.17187,10.48046 0.50976,7.53711 7.06055,15.05274 1.35742,15.89453 -4.53125,10.5332 2.10547,30.72657 a 243.8512,243.8512 0 0 0 79.03906,-34.27735 l 1.23047,-25.10937 -0.58594,-1.56055 -17.88672,-3.36719 -5.18359,-6.86523 -3.58984,-14.36328 -9.7793,-11.08203 -13.58008,-6.12305 -15.71484,-16.65625 z"
       id="Territory_11"
       inkscape:label="Cielago East" /><path
       style="display:inline;fill:#2c3233;fill-opacity:1;stroke:none;stroke-linecap:square"
       d="m 314.19444,460.89079 -15.29687,6.51758 h -11.93555 l -20.14062,4.00196 -11.2168,-0.65235 -6.91992,7.42383 -0.78516,20.68359 4.19336,15.82813 -5.2832,6.77344 -1.78125,23.04297 a 243.8512,243.8512 0 0 0 30.3457,1.98828 243.8512,243.8512 0 0 0 54.64453,-6.32422 l -2.13867,-31.22461 4.52735,-10.52149 -1.30665,-15.28711 -7.06445,-15.0625 -0.4375,-6.45703 z"
       id="Territory_12"
       inkscape:label="Cielago South" /><path
       style="display:inline;fill:#2c3233;fill-opacity:1;stroke:none;stroke-linecap:square"
       d="m 196.47765,457.87712 -13.77344,12.5918 -16.00586,0.26563 -22.81641,36.69726 a 243.8512,243.8512 0 0 0 99.72657,36.98438 l 1.8164,-23.48633 5.11133,-6.55469 -4.06836,-15.35156 0.81446,-21.42383 6.08984,-6.5332 -20.89844,-0.19532 -16.34766,-8.90429 -11.76757,1.33593 z"
       id="Territory_13"
       inkscape:label="Meridian" /><path
       style="display:inline;fill:#2c3233;fill-opacity:1;stroke:none;stroke-linecap:square"
       d="m 213.99085,410.4298 -5.94875,4.31256 1.49414,4.72851 -2.5918,16.49805 -8.51367,9.44531 -1.16797,11.27539 7.46485,5.14063 11.68359,-1.32813 16.43164,8.94922 21.8457,0.20313 0.33008,-0.35547 11.70313,0.67969 20.10156,-3.99219 h 11.7832 l 15.35157,-6.54102 9.54296,0.74219 -0.0195,-0.29492 4.95508,-10.04102 -13.69726,-18.30664 -2.45313,-13.1582 -7.94922,12.03516 -10.39062,7.4414 -25.28125,-18.82812 -11.09571,-0.12696 -4.57226,3.90039 -29.98047,-4.34179 z"
       id="Territory_14"
       inkscape:label="Cielago Depression"
       sodipodi:nodetypes="ccccccccccccccccccccccccccc" /><path
       style="display:inline;fill:#2c3233;fill-opacity:1;stroke:none;stroke-linecap:square"
       d="m 296.7628,317.07439 -4.90429,4.43555 -0.25,7.75781 19.60156,34.09765 3.23047,-9.80859 1.02344,-12.57031 5.50781,3.61914 7.75976,0.48437 4.68164,-17.4414 -10.07031,-5.09961 -14.34961,5.17773 z"
       id="Territory_15"
       inkscape:label="Harg Pass" /><path
       style="display:inline;fill:#2c3233;fill-opacity:1;stroke:none;stroke-linecap:square"
       d="m 255.88194,325.07244 -46.1289,75.16992 4.76532,8.74402 9.12726,8.13488 28.91796,4.18555 4.48829,-3.82812 12.09179,0.13867 24.82032,18.48437 9.33007,-6.68359 8.61524,-13.04688 -0.20508,-1.10351 7.20898,-6.52735 5.04297,-17.29101 -12.69922,-25.14844 -20.57812,-35.79297 -10.61328,7.64258 -16.5,0.27734 z"
       id="Territory_18"
       inkscape:label="Cielago North"
       sodipodi:nodetypes="cccccccccccccccccc" /><path
       style="display:inline;fill:#2c3233;fill-opacity:1;stroke:none;stroke-linecap:square"
       d="m 227.54991,311.31462 -8.87109,3.10547 -14.08789,36.07422 0.39258,18.63281 9.48633,20.70508 40.17382,-65.46289 -7.9414,0.47266 -11.96094,-8.77149 -3.61914,0.55664 z"
       id="Territory_19"
       inkscape:label="Wind Pass North" /><path
       style="display:inline;fill:#2c3233;fill-opacity:1;stroke:none;stroke-linecap:square"
       d="m 203.21788,352.95915 -18.68164,14.59571 -2.88476,14.67969 -3.91211,16.32226 -10.59766,11.12891 -0.26172,31.49023 5.38672,8.48438 -5.44141,19.64843 15.31641,-0.2539 13.70898,-12.53321 1.21289,-11.71484 8.54102,-9.47656 2.47266,-15.75 -1.70313,-5.39649 6.75556,-4.80977 -5.00165,-9.20585 5.44726,-8.875 -10.00781,-21.8418 z"
       id="Territory_20"
       inkscape:label="Cielago West"
       sodipodi:nodetypes="ccccccccccccccccccc" /><path
       id="Territory_23"
       style="display:inline;fill:#2c3233;fill-opacity:1;stroke:none;stroke-linecap:square"
       d="M 98.557729,355.22087 42.790151,373.81072 A 243.8512,243.8512 0 0 0 142.7003,506.64079 l 22.19727,-35.70312 5.82812,-21.04883 -4.87304,-7.67383 -8.29883,-0.40039 -9.81836,-6.03125 -0.13477,-14.51562 -7.99414,-19.58399 -0.27734,-11.92968 5.32813,-4.52735 -0.25,-7.98242 -4.10157,-6.15234 -8.26758,-2.61133 -10.56835,-5.8125 -6.27539,-0.13672 -5.34766,-6.28516 z m 5.912111,15.33008 13.35937,3.61914 2.41211,7.94727 -0.13281,6.88476 9.61718,22.07813 -24.14648,19.26172 -0.51172,0.4082 -18.300777,-19.40234 -6.115234,-25.27539 7.65625,-11.13868 z"
       inkscape:label="Habbanya Ridge Flat" /><path
       style="display:inline;fill:#2c3233;fill-opacity:1;stroke:none;stroke-linecap:square"
       d="m 133.27843,325.25994 -14.89062,2.76757 -15.05079,-0.26562 -19.488276,4.0039 -40.339843,-4.52539 -10.001954,3.10352 a 243.8512,243.8512 0 0 0 8.845704,42.11328 l 56.037109,-18.67969 12.16406,1.10547 5.31055,6.24024 5.98437,0.13086 10.75195,5.91211 7.49024,2.36523 4.28515,-10.77734 16.6836,-15.88868 0.0469,-8.43164 -10.06836,-7.05859 -12.07226,0.79688 z"
       id="Territory_24"
       inkscape:label="Habbanya Erg" /><path
       style="display:inline;fill:#2c3233;fill-opacity:1;stroke:none;stroke-linecap:square"
       d="m 32.254994,290.52361 c -0.344751,4.03431 -0.588967,8.07657 -0.732422,12.12304 0.114185,8.78384 0.702934,17.55509 1.763672,26.2754 l 10.085938,-3.13086 40.410156,4.53515 19.421872,-3.99023 15.06446,0.26562 15.2246,-2.82812 5.77149,2.95117 12.17968,-0.80273 9.67188,6.78124 0.0762,-13.77734 3.11719,-0.94922 0.39844,-3.71679 10.12695,-3.37696 2.84961,-6.51172 18.20235,-0.83203 2.34843,-4.34961 v -4.22851 z"
       id="Territory_25"
       inkscape:label="The Greater Flat"
       sodipodi:nodetypes="cccccccccccccccccccc" /><path
       style="display:inline;fill:#2c3233;fill-opacity:1;stroke:none;stroke-linecap:square"
       d="m 229.74718,258.98064 -14.44336,13.54883 -3.06836,11.47461 -12.57812,10.84765 v 4.62305 l -2.58683,5.21105 -0.212,15.91395 -4.01758,17.67969 -7.07813,26.50976 17.41797,-13.60742 -0.0195,-0.94141 14.42969,-36.94726 9.13672,-3.19922 -1.22852,-1.82617 3.29297,-14.12891 7.19727,-12.49609 11.31054,-7.53906 z"
       id="Territory_26"
       inkscape:label="Wind Pass"
       sodipodi:nodetypes="cccccccccccccccccc" /><path
       style="display:inline;fill:#2c3233;fill-opacity:1;stroke:none;stroke-linecap:square"
       d="m 38.229604,249.53142 c -3.043384,13.00655 -5.012901,26.24118 -5.888672,39.57031 l 166.638668,4.45703 11.99414,-10.3457 2.50172,-8.96786 -31.89453,-12.49805 -0.0681,2.33505 -18.07422,3.36328 -5.42773,-4.47656 -18.88086,-2.36133 -27.0039,4.52344 -19.503908,0.13476 -13.341797,-4.80273 -28.097656,-1.07031 z"
       id="Territory_27"
       inkscape:label="The Great Flat"
       sodipodi:nodetypes="ccccccccccccccc" /><path
       style="display:inline;fill:#2c3233;fill-opacity:1;stroke:none;stroke-linecap:square"
       d="m 43.979604,229.37908 a 243.8512,243.8512 0 0 0 -5.394532,18.63476 l 13.101563,9.97461 27.86914,1.06055 13.310547,4.79101 19.136718,-0.13086 27.09765,-4.53906 19.4961,2.4375 5.23437,4.31836 16.30469,-3.03516 0.0645,-1.58789 -60.91601,-24.7539 -9.84765,4.72656 -10.966802,0.27734 -5.458984,-5.04882 -5.888672,-2.67579 -1.533203,-1.65234 -15.382813,4.30078 -10.839844,0.55664 -4.58789,-5.80468 z"
       id="Territory_28"
       inkscape:label="Funeral Plain" /><path
       style="display:inline;fill:#2c3233;fill-opacity:1;stroke:none;stroke-linecap:square"
       d="m 254.22374,169.95134 3.83789,22.00781 -7.52539,11.02149 -2.10742,18.30664 v 14.83398 l 4.04492,3.6543 1.9668,6.74219 -1.7207,10.84961 8.09765,15.24609 8.79883,-2.69922 3.27539,-2.86718 5.04883,-0.13086 3.7832,-16.05079 -2.33984,-2.99218 0.13672,-17.98047 1.46093,-3.41016 -2.95117,-2.82226 1.34766,-18.19922 -2.54883,-9.1211 5.28906,-21.54492 -12.53515,0.12305 -6.06446,2.53906 -5.67968,-6.23437 z"
       id="Territory_29"
       inkscape:label="Arsunt" /><path
       style="display:inline;fill:#2c3233;fill-opacity:1;stroke:none;stroke-linecap:square"
       d="m 299.39171,60.275557 1.42383,18.607421 -4.82617,6.31836 5.8789,-0.322266 13.59961,2.720703 8.74414,7.683594 6.36328,0.134766 5.3086,7.566405 15.98242,-0.91797 12.05078,3.42383 11.9043,14.09375 -0.11524,8.8418 1.64063,0.24609 4.1289,-4.95312 3.01172,1.77148 10.24805,-5.52539 14.09375,-20.84375 A 243.8512,243.8512 0 0 0 299.39171,60.275557 Z"
       id="Territory_31"
       inkscape:label="Old Gap" /><path
       style="display:inline;fill:#2c3233;fill-opacity:1;stroke:none;stroke-linecap:square"
       d="M 275.37413,58.795088 A 243.8512,243.8512 0 0 0 159.95616,88.759932 l 10.29492,18.371088 11.23047,3.8711 18.12891,0.26172 9.04492,-8.11328 13.33399,-0.53907 19.66992,-7.310543 22.53711,-4.425781 18.53125,1.314453 4.03906,-4.560547 7.05273,-1.933594 5.53516,-7.246093 -1.39648,-18.261719 a 243.8512,243.8512 0 0 0 -22.58399,-1.392578 z"
       id="Territory_32"
       inkscape:label="Broken Land" /><path
       style="display:inline;fill:#2c3233;fill-opacity:1;stroke:none;stroke-linecap:square"
       d="M 158.69054,89.410322 A 243.8512,243.8512 0 0 0 76.040151,164.51189 l 13.115234,13.22656 3.701172,-0.26367 2.058594,1.81445 20.019529,-14.84765 8.17578,4.34961 9.79102,-10.55469 9.18554,-24.62891 10.02149,-12.32227 9.97461,-5.58594 6.39257,-8.83007 z"
       id="Territory_33"
       inkscape:label="Rock Outcroppings" /><path
       style="display:inline;fill:#2c3233;fill-opacity:1;stroke:none;stroke-linecap:square"
       d="m 75.239369,165.72673 a 243.8512,243.8512 0 0 0 -30.861328,62.27735 l 11.177734,1.91406 4.472657,5.65625 9.947265,-0.50977 16.064454,-4.49414 1.93164,2.08008 5.837891,2.65234 5.201172,4.8125 10.085936,-0.25585 9.83008,-4.71876 0.30078,-6.83789 3.1582,-3.75976 4.09766,-0.125 0.5957,-5.36328 -7.23828,-1.49805 -6.73437,-0.26953 -12.05664,-5.11133 -5.396488,3.02734 -6.515625,-1.44726 -8.626953,-11.26953 2.316406,-9.4043 5.753906,-1.50781 4.544922,-6.43945 0.646484,-4.95508 -1.408203,-1.24414 -3.759765,0.26953 z"
       id="Territory_35"
       inkscape:label="Blight Of The Cliff" /><path
       style="display:inline;fill:#2c3233;fill-opacity:1;stroke:none;stroke-linecap:square"
       d="m 315.62999,89.636885 -13.73437,15.525385 -6.68946,15.64063 -5.23242,5.95312 3.83594,8.12696 -1.05469,18.30469 -8.83789,20.16602 h 0.0215 l -5.63867,22.96289 2.51563,9.00195 -1.31641,17.77734 3.17774,3.04102 -1.73633,4.05273 -0.13086,17.19727 2.45703,3.13867 -4.00781,17.00195 4.74023,4.97657 h 6.91016 l 2.57812,-2.04493 -0.11914,-4.49804 10.00977,-8.38672 4.35491,-8.80544 15.62363,-15.82347 -1.83203,-4.1875 12.35742,-17.4375 2.84375,-0.97851 9.2461,-23.75586 -2.85156,-2.34375 3.37695,-3.23047 -0.7832,-5.08594 6.30078,-10.39062 -5.96875,-1.14258 -7.39258,1.49804 -4.20703,-9.39257 -12.46289,-9.13282 -0.50782,-8.95313 6.26758,-6.07421 7.38086,-15.22266 -2.1875,-11.60352 1.65235,-1.89648 -4.76368,-6.789062 -6.16211,-0.13086 z"
       id="Territory_38"
       inkscape:label="Imperial Basin"
       sodipodi:nodetypes="ccccccccccccccccccccccccccccccccccccccccccc" /><path
       style="display:inline;fill:#2c3233;fill-opacity:1;stroke:none;stroke-linecap:square"
       d="m 249.84484,146.08806 -14.5,7.39258 -4.73243,-3.66992 -13.09375,2.00195 -17.0664,12.51953 -5.52539,10.38672 -8.50391,2.63281 -2.90039,-1.79687 -2.2168,5.28906 0.37891,6.23828 -2.59375,5.37109 1.99219,5.97852 2.59961,11.50977 4.09179,3.89648 -1.5,6.75 44.4043,36.3125 -0.0273,0.97852 18.04296,15.54687 10.67969,-0.49609 -8.13281,-15.31446 1.74414,-11.00585 -1.76562,-6.04883 -4.21485,-3.80664 v -15.54883 l 2.15625,-18.73633 7.39844,-10.83398 -3.83008,-21.95508 -1.23437,-2.12696 -1.22071,-21.01563 z"
       id="Territory_39"
       inkscape:label="Hagga Basin" /><path
       style="display:inline;fill:#2c3233;fill-opacity:1;stroke:none;stroke-linecap:square;stroke-opacity:1"
       d="m 301.76671,86.310713 -5.99805,0.326172 -0.16015,0.04492 -8.05664,2.208984 -4.22266,4.767578 -19.04492,-1.349609 -22.23633,4.367187 -19.35938,7.193355 -0.33007,13.43946 -2.35743,-0.42774 -6.54101,13.64258 -2.89844,0.18164 -1.08594,4.88477 -7.42773,3.99804 -1.33789,2.86914 -3.7207,1.48829 -2.5625,7.86914 -12.10547,19.36719 1.03906,2.59766 3.25977,2.01953 7.32617,-2.26563 5.40234,-10.15625 17.60938,-12.91992 14.04296,-2.14454 4.50196,3.49024 13.35351,-6.8086 -2.28906,-12.6875 17.83008,-3.89648 9.17187,-4.49023 14.88282,2.41015 5.53515,-6.29687 6.68946,-15.64258 13.7539,-15.546876 z"
       id="Territory_41"
       inkscape:label="Tsimpo" /></g></svg>
